<?xml version="1.0" encoding="UTF-8"?>
<svg id="Calque_1" xmlns="http://www.w3.org/2000/svg" xmlns:xlink="http://www.w3.org/1999/xlink" viewBox="0 0 36 36">
  <defs>
    <radialGradient id="Dégradé_sans_nom" data-name="Dégradé sans nom" cx="-421.65" cy="311.58" fx="-421.65" fy="311.58" r="1" gradientTransform="translate(28067.73 20777.95) scale(66.57 -66.57)" gradientUnits="userSpaceOnUse">
      <stop offset="0" stop-color="#f5ec53"/>
      <stop offset=".24" stop-color="#e48244"/>
      <stop offset=".4" stop-color="#d05667"/>
      <stop offset=".49" stop-color="#c84278"/>
      <stop offset="1" stop-color="#192cfa"/>
    </radialGradient>
  </defs>
  <path d="M18,36C8.06,36,0,27.94,0,18S8.06,0,18,0s18,8.06,18,18-8.06,18-18,18Z" style="fill: url(#Dégradé_sans_nom);"/>
  <path d="M18,9.91c2.64,0,2.95,0,3.99.06.96.05,1.49.21,1.83.34.46.18.79.39,1.13.74.35.35.56.67.74,1.13.14.35.3.87.34,1.83.04,1.04.05,1.36.05,3.99s0,2.95-.05,3.99c-.05.96-.21,1.49-.34,1.83-.18.46-.39.79-.74,1.13-.35.35-.67.56-1.13.74-.35.14-.87.3-1.83.34-1.04.05-1.35.06-3.99.06s-2.95-.01-3.99-.06c-.96-.05-1.49-.21-1.83-.34-.46-.18-.79-.39-1.14-.74-.35-.35-.56-.67-.74-1.13-.14-.35-.3-.87-.34-1.83-.04-1.04-.06-1.36-.06-3.99s.01-2.95.06-3.99c.05-.96.21-1.49.34-1.83.18-.46.39-.79.74-1.13.35-.35.67-.56,1.14-.74.35-.14.87-.3,1.83-.34,1.04-.05,1.35-.06,3.99-.06ZM18,8.13c-2.68,0-3.02.01-4.07.06-1.05.05-1.77.22-2.39.46-.65.25-1.2.59-1.75,1.14-.55.55-.89,1.1-1.14,1.75-.25.63-.41,1.35-.46,2.39-.05,1.05-.06,1.39-.06,4.07s0,3.02.06,4.07c.05,1.05.22,1.77.46,2.39.25.65.59,1.2,1.14,1.75.55.55,1.1.89,1.75,1.14.63.25,1.34.41,2.39.46,1.05.05,1.39.06,4.07.06s3.02,0,4.07-.06c1.05-.05,1.77-.22,2.4-.46.65-.25,1.2-.59,1.75-1.14.55-.55.89-1.1,1.14-1.75.25-.63.41-1.35.46-2.39.05-1.05.06-1.39.06-4.07s-.01-3.02-.06-4.07c-.05-1.05-.22-1.77-.46-2.39-.25-.65-.59-1.2-1.14-1.75-.55-.55-1.1-.89-1.75-1.14-.63-.25-1.35-.41-2.4-.46-1.05-.05-1.39-.06-4.07-.06Z" style="fill: #fff;"/>
  <path d="M18,12.93c-2.8,0-5.07,2.27-5.07,5.07s2.27,5.07,5.07,5.07,5.07-2.27,5.07-5.07-2.27-5.07-5.07-5.07ZM18,21.29c-1.82,0-3.29-1.47-3.29-3.29s1.47-3.29,3.29-3.29,3.29,1.47,3.29,3.29-1.47,3.29-3.29,3.29Z" style="fill: #fff;"/>
  <path d="M24.46,12.73c0,.65-.53,1.18-1.19,1.18s-1.18-.53-1.18-1.18.53-1.18,1.18-1.18,1.19.53,1.19,1.18Z" style="fill: #fff;"/>
</svg>