<?xml version="1.0" encoding="UTF-8"?>
<svg id="Calque_1" xmlns="http://www.w3.org/2000/svg" viewBox="0 0 36 36">
  <path d="M18,36C8.06,36,0,27.94,0,18S8.06,0,18,0s18,8.06,18,18-8.06,18-18,18Z" style="fill: #117bb8;"/>
  <path d="M13.56,13.99h-3.72v12.04h3.72v-12.04Z" style="fill: #fff;"/>
  <path d="M11.69,12.41c1.21,0,2.2-.99,2.2-2.22s-.98-2.22-2.2-2.22-2.2.99-2.2,2.22.98,2.22,2.2,2.22Z" style="fill: #fff;"/>
  <path d="M19.52,19.71c0-1.69.78-2.7,2.27-2.7,1.37,0,2.03.97,2.03,2.7v6.32h3.71v-7.62c0-3.22-1.83-4.78-4.38-4.78s-3.63,1.99-3.63,1.99v-1.62h-3.57v12.04h3.57v-6.32Z" style="fill: #fff;"/>
</svg>