<?xml version="1.0" encoding="UTF-8"?>
<svg id="Calque_1" xmlns="http://www.w3.org/2000/svg" viewBox="0 0 36 36">
  <path d="M36,18c0,9.94-8.06,18-18,18S0,27.94,0,18,8.06,0,17.99,0s18,8.06,18,18h0Z" style="fill: #84c75d;"/>
  <path d="M27.24,15.16c1.42-.36,1.42-1.42,1.42-1.42h-3.55c-2.13-2.13-4.27-2.85-7.11-2.85s-4.97.71-7.11,2.85h-3.55s0,1.07,1.42,1.42c-.26.36-.55.83-.8,1.34-.35.72-.62,1.53-.62,2.21,0,2.93,2.04,4.97,4.97,4.97,1.66,0,3.29-.93,4.26-2.13l1.42,2.13,1.42-2.13c.97,1.2,2.6,2.13,4.26,2.13,2.93,0,4.97-2.04,4.97-4.97,0-.65-.25-1.42-.57-2.11-.26-.55-.57-1.06-.85-1.45h0ZM12.31,22.27c-1.96,0-3.55-1.59-3.55-3.55,0-1.05.46-1.99,1.18-2.65.63-.56,1.46-.91,2.37-.91.56,0,1.08.13,1.55.36,1.18.58,2.01,1.79,2.01,3.2,0,1.96-1.59,3.55-3.55,3.55ZM17.99,20.85c0-2.05-.94-4.09-2.28-5.46-.99-1.01-2.19-1.65-3.4-1.65,0,0,2.13-2.13,5.69-2.13s5.69,2.13,5.69,2.13c-1.22,0-2.43.65-3.42,1.67-1.34,1.37-2.27,3.4-2.27,5.44ZM23.68,22.27c-1.96,0-3.55-1.59-3.55-3.55,0-1.39.79-2.58,1.95-3.17.48-.25,1.03-.39,1.61-.39.96,0,1.83.38,2.46,1,.67.65,1.08,1.55,1.08,2.55,0,1.96-1.59,3.55-3.55,3.55h0Z" style="fill: #fff;"/>
  <path d="M23.68,18c-.39,0-.71.32-.71.71s.32.71.71.71.71-.32.71-.71-.32-.71-.71-.71Z" style="fill: #fff;"/>
  <path d="M23.68,16.58c-1.17,0-2.13.95-2.13,2.13s.95,2.13,2.13,2.13,2.13-.95,2.13-2.13-.95-2.13-2.13-2.13ZM23.68,20.13c-.78,0-1.42-.64-1.42-1.42s.64-1.43,1.42-1.43,1.42.64,1.42,1.43-.64,1.42-1.42,1.42Z" style="fill: #fff;"/>
  <path d="M12.31,18c-.39,0-.71.32-.71.71s.32.71.71.71.71-.32.71-.71-.32-.71-.71-.71Z" style="fill: #fff;"/>
  <path d="M12.31,16.58c-1.18,0-2.13.95-2.13,2.13s.95,2.13,2.13,2.13,2.13-.95,2.13-2.13-.95-2.13-2.13-2.13ZM12.31,20.13c-.78,0-1.42-.64-1.42-1.42s.64-1.43,1.42-1.43,1.42.64,1.42,1.43-.64,1.42-1.42,1.42Z" style="fill: #fff;"/>
</svg>