<?xml version="1.0" encoding="UTF-8"?>
<svg id="Calque_1" xmlns="http://www.w3.org/2000/svg" viewBox="0 0 100 100">
  <path d="M67.19,0h28.12C97.91,0,100,2.09,100,4.69v28.12c0,1.89-1.13,3.61-2.89,4.34-1.76.72-3.77.33-5.12-1.02l-7.62-7.62-16.99,16.99c-1.84,1.84-4.8,1.84-6.62,0l-6.25-6.25c-1.84-1.84-1.84-4.8,0-6.62l16.99-16.99-7.64-7.64c-1.35-1.35-1.74-3.36-1.02-5.12S65.29,0,67.19,0ZM32.81,100H4.69C2.09,100,0,97.91,0,95.31v-28.12C0,65.29,1.13,63.57,2.89,62.85c1.76-.72,3.77-.33,5.12,1.02l7.62,7.62,16.99-16.99c1.84-1.84,4.8-1.84,6.62,0l6.25,6.25c1.84,1.84,1.84,4.8,0,6.62l-16.99,16.99,7.62,7.62c1.35,1.35,1.74,3.36,1.02,5.12-.72,1.76-2.44,2.89-4.34,2.89l.02.02ZM0,32.81V4.69C0,2.09,2.09,0,4.69,0h28.12c1.89,0,3.61,1.13,4.34,2.89.72,1.76.33,3.77-1.02,5.12l-7.62,7.62,16.99,16.99c1.84,1.84,1.84,4.8,0,6.62l-6.25,6.25c-1.84,1.84-4.8,1.84-6.62,0L15.64,28.5l-7.64,7.64c-1.35,1.35-3.36,1.74-5.12,1.02C1.13,36.43,0,34.71,0,32.81ZM100,67.19v28.12c0,2.6-2.09,4.69-4.69,4.69h-28.12c-1.89,0-3.61-1.13-4.34-2.89-.72-1.76-.33-3.77,1.02-5.12l7.62-7.62-16.99-16.99c-1.84-1.84-1.84-4.8,0-6.62l6.25-6.25c1.84-1.84,4.8-1.84,6.62,0l16.99,16.99,7.62-7.62c1.35-1.35,3.36-1.74,5.12-1.02,1.76.72,2.89,2.44,2.89,4.34l.02-.02Z" style="fill: #36a765;"/>
</svg>