<?xml version="1.0" encoding="UTF-8"?>
<svg id="Calque_1" xmlns="http://www.w3.org/2000/svg" viewBox="0 0 100 100">
  <path d="M12.5,25.76c0-3.87,3.14-7.01,7.01-7.01,1.86,0,3.63.74,4.96,2.05l3.16,3.16c-4.1,7.6-3.4,17.09,2.13,24.02l-.27.25c-1.84,1.84-1.84,4.8,0,6.62,1.84,1.82,4.8,1.84,6.62,0l31.27-31.23c1.84-1.84,1.84-4.8,0-6.62-1.84-1.82-4.8-1.84-6.62,0l-.25.25c-6.93-5.53-16.45-6.23-24.02-2.13l-3.18-3.16c-3.65-3.67-8.61-5.72-13.79-5.72C8.73,6.25,0,14.98,0,25.76v61.74c0,3.46,2.79,6.25,6.25,6.25s6.25-2.79,6.25-6.25V25.76ZM50,68.75c1.66,0,3.25-.66,4.42-1.83,1.17-1.17,1.83-2.76,1.83-4.42s-.66-3.25-1.83-4.42c-1.17-1.17-2.76-1.83-4.42-1.83s-3.25.66-4.42,1.83c-1.17,1.17-1.83,2.76-1.83,4.42s.66,3.25,1.83,4.42c1.17,1.17,2.76,1.83,4.42,1.83ZM62.5,81.25c0-1.66-.66-3.25-1.83-4.42-1.17-1.17-2.76-1.83-4.42-1.83s-3.25.66-4.42,1.83c-1.17,1.17-1.83,2.76-1.83,4.42s.66,3.25,1.83,4.42c1.17,1.17,2.76,1.83,4.42,1.83s3.25-.66,4.42-1.83c1.17-1.17,1.83-2.76,1.83-4.42ZM62.5,56.25c1.66,0,3.25-.66,4.42-1.83,1.17-1.17,1.83-2.76,1.83-4.42s-.66-3.25-1.83-4.42c-1.17-1.17-2.76-1.83-4.42-1.83s-3.25.66-4.42,1.83c-1.17,1.17-1.83,2.76-1.83,4.42s.66,3.25,1.83,4.42c1.17,1.17,2.76,1.83,4.42,1.83ZM75,68.75c0-1.66-.66-3.25-1.83-4.42-1.17-1.17-2.76-1.83-4.42-1.83s-3.25.66-4.42,1.83c-1.17,1.17-1.83,2.76-1.83,4.42s.66,3.25,1.83,4.42c1.17,1.17,2.76,1.83,4.42,1.83s3.25-.66,4.42-1.83c1.17-1.17,1.83-2.76,1.83-4.42ZM75,43.75c1.66,0,3.25-.66,4.42-1.83,1.17-1.17,1.83-2.76,1.83-4.42s-.66-3.25-1.83-4.42c-1.17-1.17-2.76-1.83-4.42-1.83s-3.25.66-4.42,1.83c-1.17,1.17-1.83,2.76-1.83,4.42s.66,3.25,1.83,4.42c1.17,1.17,2.76,1.83,4.42,1.83ZM87.5,56.25c0-1.66-.66-3.25-1.83-4.42-1.17-1.17-2.76-1.83-4.42-1.83s-3.25.66-4.42,1.83c-1.17,1.17-1.83,2.76-1.83,4.42s.66,3.25,1.83,4.42c1.17,1.17,2.76,1.83,4.42,1.83s3.25-.66,4.42-1.83,1.83-2.76,1.83-4.42ZM93.75,50c1.66,0,3.25-.66,4.42-1.83,1.17-1.17,1.83-2.76,1.83-4.42s-.66-3.25-1.83-4.42c-1.17-1.17-2.76-1.83-4.42-1.83s-3.25.66-4.42,1.83c-1.17,1.17-1.83,2.76-1.83,4.42s.66,3.25,1.83,4.42c1.17,1.17,2.76,1.83,4.42,1.83Z" style="fill: #36a765;"/>
</svg>