<?xml version="1.0" encoding="UTF-8"?>
<svg id="ICONS" xmlns="http://www.w3.org/2000/svg" viewBox="0 0 100 100">
  <path id="beach" d="M80.76,26.37c3.46,0,6.27-2.81,6.27-6.27s-2.81-6.27-6.27-6.27-6.27,2.81-6.27,6.27,2.81,6.27,6.27,6.27ZM80.76,17.89c1.22,0,2.21.99,2.21,2.21s-.99,2.21-2.21,2.21-2.21-.99-2.21-2.21.99-2.21,2.21-2.21ZM78.48,10.12V2.64c0-1.12.91-2.03,2.03-2.03s2.03.91,2.03,2.03v7.48c0,1.12-.91,2.03-2.03,2.03s-2.03-.91-2.03-2.03ZM80.51,28.04c1.12,0,2.03.91,2.03,2.03v7.48c0,1.12-.91,2.03-2.03,2.03s-2.03-.91-2.03-2.03v-7.48c0-1.12.91-2.03,2.03-2.03ZM70.26,12.72c-.79-.79-.79-2.08,0-2.87.79-.79,2.08-.79,2.87,0l1.76,1.76c.79.79.79,2.08,0,2.87-.4.4-.92.59-1.44.59s-1.04-.2-1.44-.6l-1.76-1.76ZM86.13,25.72c.79-.79,2.08-.79,2.87,0l1.76,1.76c.79.79.79,2.08,0,2.87-.4.4-.92.59-1.44.59s-1.04-.2-1.44-.59l-1.76-1.76c-.79-.79-.79-2.08,0-2.87ZM74.89,25.72c.79.79.79,2.08,0,2.87l-1.76,1.76c-.4.4-.92.6-1.44.6s-1.04-.2-1.44-.59c-.79-.79-.79-2.08,0-2.87l1.76-1.76c.79-.79,2.08-.79,2.87,0ZM86.13,14.48c-.79-.79-.79-2.08,0-2.87l1.76-1.76c.79-.79,2.08-.79,2.87,0,.79.79.79,2.08,0,2.87l-1.76,1.76c-.4.4-.92.59-1.44.59s-1.04-.2-1.44-.59ZM61.02,20.1c0-1.12.91-2.03,2.03-2.03h7.48c1.12,0,2.03.91,2.03,2.03s-.91,2.03-2.03,2.03h-7.48c-1.12,0-2.03-.91-2.03-2.03ZM100,20.1c0,1.12-.91,2.03-2.03,2.03h-7.48c-1.12,0-2.03-.91-2.03-2.03s.91-2.03,2.03-2.03h7.48c1.12,0,2.03.91,2.03,2.03ZM93.03,95.09c-9.91-8.39-23.11-12.3-41.56-12.3-1.67,0-3.28.04-4.86.11l-10.29-33.63,4.63-1.35,22.9-6.69c.17-.05.33-.12.48-.2.04-.02.07-.05.11-.07.11-.07.21-.14.31-.22.04-.04.08-.08.12-.12.08-.08.15-.16.22-.24.04-.05.07-.11.11-.16.06-.09.11-.17.15-.27.01-.03.04-.05.05-.08.01-.03.02-.07.03-.1.04-.1.07-.19.09-.29.02-.06.03-.13.04-.19.02-.1.02-.2.03-.31,0-.07,0-.13,0-.2,0-.1-.02-.2-.04-.3-.01-.07-.02-.14-.04-.21,0-.02,0-.03,0-.05-.03-.09-.07-.17-.11-.26-.02-.05-.03-.1-.05-.15,0-.01-.01-.03-.02-.04,0,0,0-.01,0-.02-6.89-13.71-22.51-20.76-37.85-17.4l-.84-2.75c-.39-1.29-1.76-2.01-3.04-1.62-1.29.39-2.01,1.76-1.62,3.04l.82,2.68C8,27.11-1.4,41.48.17,56.77c0,0,0,.01,0,.02,0,.02,0,.03,0,.05,0,.05.02.1.03.15.02.09.02.19.05.28,0,.02.01.04.02.05.01.04.03.08.05.13.04.11.09.22.15.32.02.04.05.08.07.12.07.12.16.23.25.33.02.02.03.04.04.05.11.12.23.22.37.31.01,0,.02.02.03.03.02.01.03.01.05.02.18.12.38.21.58.28.02,0,.04,0,.06.02.21.06.44.1.66.1s.46-.03.68-.1l12.91-3.77s0,0,0,0l15.45-4.51,9.97,32.57c-13.44,1.21-23.66,5.07-31.7,11.88-.78.66-1.06,1.74-.71,2.7.35.96,1.27,1.6,2.29,1.6h79.97c1.02,0,1.94-.64,2.29-1.6.35-.96.07-2.04-.71-2.7ZM24.28,26.61l5.93,19.37-12.72,3.71c-1.31-10.64,1.42-19.78,6.79-23.09ZM34.89,44.61l-5.92-19.33c6.25.04,13.36,6.26,17.93,15.82l-12.01,3.51ZM59.53,37.42l-7.89,2.3c-2.93-6.39-6.87-11.51-11.21-14.87,7.8,1.4,14.78,5.84,19.1,12.56ZM14.21,32.53c-1.84,5.16-2.42,11.59-1.45,18.55l-7.89,2.3c.02-7.99,3.52-15.48,9.34-20.85ZM19.23,94.52c8.21-4.65,18.67-6.85,32.24-6.85s24.03,2.2,32.24,6.85H19.23Z" style="fill: #36a765;"/>
</svg>