<?xml version="1.0" encoding="UTF-8"?>
<svg id="Calque_1" xmlns="http://www.w3.org/2000/svg" viewBox="0 0 100 100">
  <path d="M5,15c2.77,0,5,2.23,5,5v40h35v-25c0-2.77,2.23-5,5-5h35c8.28,0,15,6.72,15,15v35c0,2.77-2.23,5-5,5s-5-2.23-5-5v-5H10v5c0,2.77-2.23,5-5,5s-5-2.23-5-5V20c0-2.77,2.23-5,5-5ZM27.5,30c3.32,0,6.49,1.32,8.84,3.66,2.34,2.34,3.66,5.52,3.66,8.84s-1.32,6.49-3.66,8.84c-2.34,2.34-5.52,3.66-8.84,3.66s-6.49-1.32-8.84-3.66c-2.34-2.34-3.66-5.52-3.66-8.84s1.32-6.49,3.66-8.84,5.52-3.66,8.84-3.66Z" style="fill: #36a765;"/>
</svg>