<?xml version="1.0" encoding="UTF-8"?>
<svg id="ICONS" xmlns="http://www.w3.org/2000/svg" viewBox="0 0 100 100">
  <path id="breakfast" d="M33.48,79.86c0-1.48-1.2-2.68-2.68-2.68h-2.51c-1.68-2.65-5.79-9.64-8.18-18-.55-1.94-.96-3.8-1.27-5.55,0-.04-.01-.07-.02-.11-.73-4.22-.84-7.76-.81-9.95h43.64c-.05,2.97-.25,7.88-1.03,11.56-.31,1.45.62,2.87,2.07,3.18,1.45.31,2.87-.62,3.18-2.07,1.31-6.23,1.16-15.03,1.15-15.4-.03-1.46-1.22-2.63-2.68-2.63H15.46c-1.37,0-2.52,1.03-2.67,2.39-.02.2-.3,2.9-.05,7.05-1.26-.47-2.75-.79-4.52-.79-3.81,0-7,2.54-7.95,6.32-.95,3.78.5,8.88,5.88,11.76,2.42,1.29,4.47,2.15,6.27,2.91,3.7,1.55,5.74,2.4,7.52,5.53.04.07.1.12.14.18.69,1.36,1.35,2.57,1.95,3.61h-13.01c-1.48,0-2.68,1.2-2.68,2.68s1.2,2.68,2.68,2.68h17.82s0,0,0,0c0,0,0,0,0,0h3.95c1.48,0,2.68-1.2,2.68-2.68ZM14.5,62.9c-1.7-.71-3.62-1.52-5.81-2.69-3.03-1.62-3.62-4.1-3.21-5.73.13-.53.72-2.26,2.74-2.26,3.52,0,4.97,1.94,5.39,2.66.33,1.82.77,3.76,1.34,5.76.27.96.57,1.89.88,2.81-.44-.19-.88-.37-1.33-.56ZM36.56,21.75c-1.47-1.89-3.31-4.24-3.09-7.75.36-5.83,5.82-9.29,6.06-9.43,1.26-.78,2.91-.4,3.7.86.78,1.25.4,2.9-.85,3.69-.08.05-3.36,2.2-3.55,5.22-.09,1.41.61,2.38,1.96,4.11,1.06,1.36,2.26,2.89,2.96,4.98.77,2.31,1.2,6.85-4.62,11.21-.48.36-1.05.54-1.61.54-.82,0-1.62-.37-2.15-1.07-.89-1.18-.65-2.87.54-3.76,3.59-2.69,2.96-4.6,2.75-5.22-.4-1.21-1.23-2.26-2.1-3.38ZM49.12,26.83c-.93-1.19-2.21-2.83-2.06-5.32.25-3.93,3.7-6.19,4.09-6.43,1.26-.78,2.91-.4,3.7.86.78,1.25.4,2.9-.84,3.68-.4.26-1.53,1.21-1.59,2.22-.02.4.19.73.93,1.68.65.83,1.45,1.86,1.92,3.27.44,1.33,1.02,4.74-3.11,7.84-.48.36-1.05.54-1.61.54-.82,0-1.62-.37-2.15-1.07-.89-1.19-.65-2.87.54-3.76.68-.51,1.44-1.24,1.24-1.85-.18-.53-.59-1.06-1.06-1.66ZM24.38,26.83c-.93-1.19-2.21-2.83-2.05-5.32.25-3.93,3.7-6.19,4.09-6.43,1.26-.78,2.91-.4,3.7.86.78,1.25.4,2.9-.84,3.68-.4.26-1.53,1.21-1.59,2.22-.02.4.19.73.93,1.68.65.83,1.45,1.86,1.92,3.27.44,1.32,1.02,4.74-3.11,7.84-.48.36-1.05.54-1.61.54-.82,0-1.62-.37-2.15-1.07-.89-1.19-.65-2.87.54-3.76.68-.51,1.44-1.24,1.24-1.85-.18-.54-.59-1.06-1.06-1.66ZM94.06,75.18c-.42-3.55-5.23-6.82-8.39-8.6-.07-.52-.19-.99-.35-1.4-1.14-2.96-4.58-4.96-9.94-5.79-7.19-1.1-11.44-.87-17.03,3.39-1.77.49-7.58,2.19-11.06,4.39-.81.44-3.18,2.02-4.42,5.63-1.37,1-5.72,4.46-9.76,10.64-.82,1.26-3.33,5.09-1.69,8.44,1.56,3.19,5.68,3.54,7.44,3.68.24.02.48.03.73.03,2.49,0,5.55-.92,7.46-1.6,1.06.82,2.36,1.31,4,1.31,2.89,0,5.68-1.2,7.41-2.13,2.15,1.46,4.47,1.94,6.24,1.94.46,0,.89-.03,1.26-.09,2.19-.13,3.86-.4,5.17-1.06,1.46.45,3.89,1.12,5.69,1.32.55.06,1.11.1,1.68.1,1.65,0,3.34-.37,4.84-1.66,1.5.36,4.03.96,7.22,1.76.92.23,1.79.35,2.6.35,1.59,0,2.95-.44,4.08-1.32,1.84-1.44,2.77-3.86,2.77-7.21,0-2.99-3.57-7.62-6.05-10.46.14-.53.18-1.09.11-1.67ZM39.29,90.22c-2.46-.2-2.98-.61-3.05-.67,0,0-.16-.85,1.35-3.17,1.59-2.44,3.24-4.39,4.67-5.87.35,2.82.77,6.09,1.75,8.84-1.67.52-3.56.97-4.72.87ZM50.07,89.48c-.1-.17-.22-.33-.35-.47-.72-1.17-1.45-3.74-2.14-9.22-.78-6.23,2.1-7.82,2.15-7.85.18-.07.2-.09.36-.2.89-.57,2.07-1.13,3.31-1.64-1.82,5.62-1.47,12.69.76,17.76.18.41.37.79.57,1.16-1.14.5-2.49.93-3.7.93-.31,0-.64-.11-.97-.46ZM65.52,89.68c-.08,0-.2.02-.28.03-.42.06-4.19.47-6.16-4.02-2.65-6.01-1.55-15.45,2.13-18.36,2.92-2.3,5.09-3.15,8.18-3.15,1.46,0,3.13.19,5.18.51,4.05.62,5.53,1.85,5.75,2.41.13.34-.17,1.01-.77,1.75-3.55,4.36-8.4,10.34-9.6,16.62q-.76,4-4.43,4.21ZM77.4,89.96c-.79-.09-1.86-.33-2.89-.61.26-.83.5-1.78.71-2.88.94-4.95,5.3-10.32,8.49-14.24.11-.13.21-.27.31-.4,2.1,1.31,3.93,2.76,4.54,3.65-2.83,2.65-5.14,7.37-6.83,10.86-.56,1.16-1.2,2.46-1.48,2.85-.44.62-.71.99-2.84.75ZM93.93,90.29c-.32.25-1.09.25-2.08,0-2.14-.54-3.99-.99-5.43-1.33.04-.09.08-.16.12-.25,1.08-2.21,2.56-5.24,4.12-7.44,2.17,2.62,3.87,5.17,3.98,6.04,0,1.79-.37,2.71-.71,2.98Z" style="fill: #36a765;"/>
</svg>