<?xml version="1.0" encoding="UTF-8"?>
<svg id="ICONS" xmlns="http://www.w3.org/2000/svg" viewBox="0 0 100 100">
  <path id="check-in" d="M10.69,80.06h44.73c7.05,0,10.72-3.6,10.72-10.49V30.42c0-6.88-3.67-10.49-10.72-10.49H10.69c-7.02,0-10.69,3.57-10.69,10.49v39.15c0,6.88,3.67,10.49,10.69,10.49ZM10.66,73.66c-2.7,0-4.19-1.38-4.19-4.21v-29.6c0-2.83,1.49-4.21,4.19-4.21h44.8c2.7,0,4.19,1.38,4.19,4.21v29.6c0,2.83-1.49,4.21-4.19,4.21H10.66ZM26.8,46.73h1.92c1.17,0,1.56-.35,1.56-1.48v-1.9c0-1.16-.39-1.51-1.56-1.51h-1.92c-1.17,0-1.56.35-1.56,1.51v1.9c0,1.13.39,1.48,1.56,1.48ZM37.42,46.73h1.92c1.14,0,1.53-.35,1.53-1.48v-1.9c0-1.16-.39-1.51-1.53-1.51h-1.92c-1.17,0-1.56.35-1.56,1.51v1.9c0,1.13.39,1.48,1.56,1.48ZM48.01,46.73h1.92c1.17,0,1.56-.35,1.56-1.48v-1.9c0-1.16-.39-1.51-1.56-1.51h-1.92c-1.14,0-1.53.35-1.53,1.51v1.9c0,1.13.39,1.48,1.53,1.48ZM16.21,57.09h1.88c1.17,0,1.56-.35,1.56-1.51v-1.9c0-1.13-.39-1.48-1.56-1.48h-1.88c-1.17,0-1.56.35-1.56,1.48v1.9c0,1.16.39,1.51,1.56,1.51ZM26.8,57.09h1.92c1.17,0,1.56-.35,1.56-1.51v-1.9c0-1.13-.39-1.48-1.56-1.48h-1.92c-1.17,0-1.56.35-1.56,1.48v1.9c0,1.16.39,1.51,1.56,1.51ZM37.42,57.09h1.92c1.14,0,1.53-.35,1.53-1.51v-1.9c0-1.13-.39-1.48-1.53-1.48h-1.92c-1.17,0-1.56.35-1.56,1.48v1.9c0,1.16.39,1.51,1.56,1.51ZM48.01,57.09h1.92c1.17,0,1.56-.35,1.56-1.51v-1.9c0-1.13-.39-1.48-1.56-1.48h-1.92c-1.14,0-1.53.35-1.53,1.48v1.9c0,1.16.39,1.51,1.53,1.51ZM16.21,67.42h1.88c1.17,0,1.56-.35,1.56-1.48v-1.9c0-1.16-.39-1.51-1.56-1.51h-1.88c-1.17,0-1.56.35-1.56,1.51v1.9c0,1.13.39,1.48,1.56,1.48ZM26.8,67.42h1.92c1.17,0,1.56-.35,1.56-1.48v-1.9c0-1.16-.39-1.51-1.56-1.51h-1.92c-1.17,0-1.56.35-1.56,1.51v1.9c0,1.13.39,1.48,1.56,1.48ZM37.42,67.42h1.92c1.14,0,1.53-.35,1.53-1.48v-1.9c0-1.16-.39-1.51-1.53-1.51h-1.92c-1.17,0-1.56.35-1.56,1.51v1.9c0,1.13.39,1.48,1.56,1.48ZM99.32,49.62l-9.84-9.84c-.66-.66-1.66-.87-2.53-.51-.87.36-1.44,1.2-1.44,2.15v5.35h-11.9c-1.28,0-2.32,1.03-2.32,2.32v4.38c0,1.28,1.03,2.32,2.32,2.32h11.9v5.33c0,.94.57,1.78,1.44,2.15.87.36,1.87.16,2.53-.51l9.84-9.84c.91-.91.91-2.37,0-3.28Z" style="fill: #36a765;"/>
</svg>