<svg width="65" height="65" viewBox="0 0 65 65" fill="none" xmlns="http://www.w3.org/2000/svg">
<path d="M6.93227 52L35.9467 52C40.519 52 42.9 49.6629 42.9 45.1974L42.9 19.8026C42.9 15.3371 40.519 13 35.9467 13L6.93227 13C2.38099 13 0 15.3162 0 19.8026L0 45.1974C0 49.6629 2.38099 52 6.93227 52ZM6.9112 47.8475C5.16233 47.8475 4.19307 46.9502 4.19307 45.114L4.19307 25.9165C4.19307 24.0803 5.16233 23.183 6.9112 23.183L35.9677 23.183C37.7166 23.183 38.6859 24.0803 38.6859 25.9165L38.6859 45.114C38.6859 46.9502 37.7166 47.8475 35.9677 47.8475L6.9112 47.8475ZM17.3834 30.382L18.6265 30.382C19.3851 30.382 19.6379 30.1525 19.6379 29.4222L19.6379 28.191C19.6379 27.4398 19.3851 27.2103 18.6265 27.2103L17.3834 27.2103C16.6248 27.2103 16.372 27.4398 16.372 28.191L16.372 29.4222C16.372 30.1525 16.6248 30.382 17.3834 30.382ZM24.2735 30.382L25.5166 30.382C26.2541 30.382 26.507 30.1525 26.507 29.4222L26.507 28.191C26.507 27.4398 26.2541 27.2103 25.5166 27.2103L24.2735 27.2103C23.5149 27.2103 23.2621 27.4398 23.2621 28.191L23.2621 29.4222C23.2621 30.1525 23.5149 30.382 24.2735 30.382ZM31.1425 30.382L32.3857 30.382C33.1443 30.382 33.3971 30.1525 33.3971 29.4222L33.3971 28.191C33.3971 27.4398 33.1443 27.2103 32.3857 27.2103L31.1425 27.2103C30.4051 27.2103 30.1522 27.4398 30.1522 28.191L30.1522 29.4222C30.1522 30.1525 30.4051 30.382 31.1425 30.382ZM10.5143 37.1011L11.7364 37.1011C12.4949 37.1011 12.7478 36.8716 12.7478 36.1204L12.7478 34.8892C12.7478 34.1589 12.4949 33.9294 11.7364 33.9294L10.5143 33.9294C9.75575 33.9294 9.5029 34.1589 9.5029 34.8892L9.5029 36.1204C9.5029 36.8716 9.75575 37.1011 10.5143 37.1011ZM17.3834 37.1011L18.6265 37.1011C19.3851 37.1011 19.6379 36.8716 19.6379 36.1204L19.6379 34.8892C19.6379 34.1589 19.3851 33.9294 18.6265 33.9294L17.3834 33.9294C16.6248 33.9294 16.372 34.1589 16.372 34.8892L16.372 36.1204C16.372 36.8716 16.6248 37.1011 17.3834 37.1011ZM24.2735 37.1011L25.5166 37.1011C26.2541 37.1011 26.507 36.8716 26.507 36.1204L26.507 34.8892C26.507 34.1589 26.2541 33.9294 25.5166 33.9294L24.2735 33.9294C23.5149 33.9294 23.2621 34.1589 23.2621 34.8892L23.2621 36.1204C23.2621 36.8716 23.5149 37.1011 24.2735 37.1011ZM31.1425 37.1011L32.3857 37.1011C33.1443 37.1011 33.3971 36.8716 33.3971 36.1204L33.3971 34.8892C33.3971 34.1589 33.1443 33.9294 32.3857 33.9294L31.1425 33.9294C30.4051 33.9294 30.1522 34.1589 30.1522 34.8892L30.1522 36.1204C30.1522 36.8716 30.4051 37.1011 31.1425 37.1011ZM10.5143 43.7994L11.7364 43.7994C12.4949 43.7994 12.7478 43.5698 12.7478 42.8395L12.7478 41.6083C12.7478 40.8571 12.4949 40.6276 11.7364 40.6276L10.5143 40.6276C9.75575 40.6276 9.5029 40.8571 9.5029 41.6083L9.5029 42.8395C9.5029 43.5698 9.75575 43.7994 10.5143 43.7994ZM17.3834 43.7994L18.6265 43.7994C19.3851 43.7994 19.6379 43.5698 19.6379 42.8395L19.6379 41.6083C19.6379 40.8571 19.3851 40.6276 18.6265 40.6276L17.3834 40.6276C16.6248 40.6276 16.372 40.8571 16.372 41.6083L16.372 42.8395C16.372 43.5698 16.6248 43.7994 17.3834 43.7994ZM24.2735 43.7994L25.5166 43.7994C26.2541 43.7994 26.507 43.5698 26.507 42.8395L26.507 41.6083C26.507 40.8571 26.2541 40.6276 25.5166 40.6276L24.2735 40.6276C23.5149 40.6276 23.2621 40.8571 23.2621 41.6083L23.2621 42.8395C23.2621 43.5698 23.5149 43.7994 24.2735 43.7994Z" fill="#36A765"/>
<path d="M64.4204 32.2509L58.035 25.8655C57.6049 25.4354 56.9575 25.3024 56.3943 25.5374C55.8312 25.7724 55.4631 26.3178 55.4631 26.9298V30.3974L47.7474 30.3974C46.9182 30.3929 46.2442 31.067 46.2442 31.9006L46.2442 34.7386C46.2398 35.5678 46.9138 36.2418 47.7474 36.2418L55.4631 36.2418L55.4631 39.7005C55.4631 40.3125 55.8312 40.8579 56.3943 41.0929C56.9575 41.3279 57.6049 41.1949 58.035 40.7648L64.4204 34.3794C65.0102 33.7896 65.0102 32.8407 64.4204 32.2509Z" fill="#36A765"/>
</svg>
