<svg width="65" height="65" viewBox="0 0 65 65" fill="none" xmlns="http://www.w3.org/2000/svg">
<path d="M29.0322 52L58.0466 52C62.619 52 65 49.6629 65 45.1974L65 19.8026C65 15.3371 62.619 13 58.0466 13L29.0322 13C24.481 13 22.1 15.3162 22.1 19.8026L22.1 45.1974C22.1 49.6629 24.481 52 29.0322 52ZM29.0112 47.8475C27.2623 47.8475 26.2931 46.9502 26.2931 45.114L26.2931 25.9165C26.2931 24.0803 27.2623 23.183 29.0112 23.183L58.0677 23.183C59.8166 23.183 60.7858 24.0803 60.7858 25.9165L60.7858 45.114C60.7858 46.9502 59.8166 47.8475 58.0677 47.8475L29.0112 47.8475ZM39.4833 30.382L40.7265 30.382C41.485 30.382 41.7379 30.1525 41.7379 29.4222L41.7379 28.191C41.7379 27.4398 41.485 27.2103 40.7265 27.2103L39.4833 27.2103C38.7248 27.2103 38.4719 27.4398 38.4719 28.191L38.4719 29.4222C38.4719 30.1525 38.7248 30.382 39.4833 30.382ZM46.3735 30.382L47.6166 30.382C48.3541 30.382 48.607 30.1525 48.607 29.4222L48.607 28.191C48.607 27.4398 48.3541 27.2103 47.6166 27.2103L46.3735 27.2103C45.6149 27.2103 45.3621 27.4398 45.3621 28.191L45.3621 29.4222C45.3621 30.1525 45.6149 30.382 46.3735 30.382ZM53.2425 30.382L54.4857 30.382C55.2442 30.382 55.4971 30.1525 55.4971 29.4222L55.4971 28.191C55.4971 27.4398 55.2442 27.2103 54.4857 27.2103L53.2425 27.2103C52.505 27.2103 52.2522 27.4398 52.2522 28.191L52.2522 29.4222C52.2522 30.1525 52.505 30.382 53.2425 30.382ZM32.6143 37.1011L33.8364 37.1011C34.5949 37.1011 34.8478 36.8716 34.8478 36.1204L34.8478 34.8892C34.8478 34.1589 34.5949 33.9294 33.8364 33.9294L32.6143 33.9294C31.8557 33.9294 31.6029 34.1589 31.6029 34.8892L31.6029 36.1204C31.6029 36.8716 31.8557 37.1011 32.6143 37.1011ZM39.4833 37.1011L40.7265 37.1011C41.485 37.1011 41.7379 36.8716 41.7379 36.1204L41.7379 34.8892C41.7379 34.1589 41.485 33.9294 40.7265 33.9294L39.4833 33.9294C38.7248 33.9294 38.4719 34.1589 38.4719 34.8892L38.4719 36.1204C38.4719 36.8716 38.7248 37.1011 39.4833 37.1011ZM46.3735 37.1011L47.6166 37.1011C48.3541 37.1011 48.607 36.8716 48.607 36.1204L48.607 34.8892C48.607 34.1589 48.3541 33.9294 47.6166 33.9294L46.3735 33.9294C45.6149 33.9294 45.3621 34.1589 45.3621 34.8892L45.3621 36.1204C45.3621 36.8716 45.6149 37.1011 46.3735 37.1011ZM53.2425 37.1011L54.4857 37.1011C55.2442 37.1011 55.4971 36.8716 55.4971 36.1204L55.4971 34.8892C55.4971 34.1589 55.2442 33.9294 54.4857 33.9294L53.2425 33.9294C52.505 33.9294 52.2522 34.1589 52.2522 34.8892L52.2522 36.1204C52.2522 36.8716 52.505 37.1011 53.2425 37.1011ZM32.6143 43.7994L33.8364 43.7994C34.5949 43.7994 34.8478 43.5698 34.8478 42.8395L34.8478 41.6083C34.8478 40.8571 34.5949 40.6276 33.8364 40.6276L32.6143 40.6276C31.8557 40.6276 31.6029 40.8571 31.6029 41.6083L31.6029 42.8395C31.6029 43.5698 31.8557 43.7994 32.6143 43.7994ZM39.4833 43.7994L40.7265 43.7994C41.485 43.7994 41.7379 43.5698 41.7379 42.8395L41.7379 41.6083C41.7379 40.8571 41.485 40.6276 40.7265 40.6276L39.4833 40.6276C38.7248 40.6276 38.4719 40.8571 38.4719 41.6083L38.4719 42.8395C38.4719 43.5698 38.7248 43.7994 39.4833 43.7994ZM46.3735 43.7994L47.6166 43.7994C48.3541 43.7994 48.607 43.5698 48.607 42.8395L48.607 41.6083C48.607 40.8571 48.3541 40.6276 47.6166 40.6276L46.3735 40.6276C45.6149 40.6276 45.3621 40.8571 45.3621 41.6083L45.3621 42.8395C45.3621 43.5698 45.6149 43.7994 46.3735 43.7994Z" fill="#36A765"/>
<path d="M18.9202 32.2509L12.5348 25.8655C12.1047 25.4354 11.4573 25.3024 10.8941 25.5374C10.331 25.7724 9.96294 26.3178 9.96294 26.9298V30.3974L2.24727 30.3974C1.41805 30.3929 0.744039 31.067 0.744039 31.9006L0.74404 34.7386C0.739605 35.5678 1.41362 36.2418 2.24727 36.2418L9.96295 36.2418L9.96295 39.7005C9.96295 40.3125 10.331 40.8579 10.8941 41.0929C11.4573 41.3279 12.1047 41.1949 12.5348 40.7648L18.9202 34.3794C19.51 33.7896 19.51 32.8407 18.9202 32.2509Z" fill="#36A765"/>
</svg>
