<?xml version="1.0" encoding="UTF-8"?>
<svg id="ICONS" xmlns="http://www.w3.org/2000/svg" viewBox="0 0 100 100">
  <path id="check-out" d="M44.02,80.35h45.15c7.12,0,10.82-3.64,10.82-10.59V30.24c0-6.95-3.71-10.59-10.82-10.59h-45.15c-7.08,0-10.79,3.6-10.79,10.59v39.52c0,6.95,3.71,10.59,10.79,10.59ZM43.99,73.88c-2.72,0-4.23-1.4-4.23-4.25v-29.88c0-2.86,1.51-4.25,4.23-4.25h45.22c2.72,0,4.23,1.4,4.23,4.25v29.88c0,2.86-1.51,4.25-4.23,4.25h-45.22ZM60.29,46.7h1.93c1.18,0,1.57-.36,1.57-1.49v-1.92c0-1.17-.39-1.53-1.57-1.53h-1.93c-1.18,0-1.57.36-1.57,1.53v1.92c0,1.14.39,1.49,1.57,1.49ZM71.01,46.7h1.93c1.15,0,1.54-.36,1.54-1.49v-1.92c0-1.17-.39-1.53-1.54-1.53h-1.93c-1.18,0-1.57.36-1.57,1.53v1.92c0,1.14.39,1.49,1.57,1.49ZM81.7,46.7h1.93c1.18,0,1.57-.36,1.57-1.49v-1.92c0-1.17-.39-1.53-1.57-1.53h-1.93c-1.15,0-1.54.36-1.54,1.53v1.92c0,1.14.39,1.49,1.54,1.49ZM49.6,57.16h1.9c1.18,0,1.57-.36,1.57-1.53v-1.92c0-1.14-.39-1.49-1.57-1.49h-1.9c-1.18,0-1.57.36-1.57,1.49v1.92c0,1.17.39,1.53,1.57,1.53ZM60.29,57.16h1.93c1.18,0,1.57-.36,1.57-1.53v-1.92c0-1.14-.39-1.49-1.57-1.49h-1.93c-1.18,0-1.57.36-1.57,1.49v1.92c0,1.17.39,1.53,1.57,1.53ZM71.01,57.16h1.93c1.15,0,1.54-.36,1.54-1.53v-1.92c0-1.14-.39-1.49-1.54-1.49h-1.93c-1.18,0-1.57.36-1.57,1.49v1.92c0,1.17.39,1.53,1.57,1.53ZM81.7,57.16h1.93c1.18,0,1.57-.36,1.57-1.53v-1.92c0-1.14-.39-1.49-1.57-1.49h-1.93c-1.15,0-1.54.36-1.54,1.49v1.92c0,1.17.39,1.53,1.54,1.53ZM49.6,67.58h1.9c1.18,0,1.57-.36,1.57-1.49v-1.92c0-1.17-.39-1.53-1.57-1.53h-1.9c-1.18,0-1.57.36-1.57,1.53v1.92c0,1.14.39,1.49,1.57,1.49ZM60.29,67.58h1.93c1.18,0,1.57-.36,1.57-1.49v-1.92c0-1.17-.39-1.53-1.57-1.53h-1.93c-1.18,0-1.57.36-1.57,1.53v1.92c0,1.14.39,1.49,1.57,1.49ZM71.01,67.58h1.93c1.15,0,1.54-.36,1.54-1.49v-1.92c0-1.17-.39-1.53-1.54-1.53h-1.93c-1.18,0-1.57.36-1.57,1.53v1.92c0,1.14.39,1.49,1.57,1.49ZM28.29,49.61l-9.94-9.94c-.67-.67-1.68-.88-2.55-.51-.88.37-1.45,1.21-1.45,2.17v5.4H2.34C1.05,46.72,0,47.77,0,49.07v4.42c0,1.29,1.04,2.34,2.34,2.34h12.01v5.38c0,.95.57,1.8,1.45,2.17.88.37,1.88.16,2.55-.51l9.94-9.94c.92-.92.92-2.39,0-3.31Z" style="fill: #36a765;"/>
</svg>