<?xml version="1.0" encoding="UTF-8"?>
<svg id="Calque_1" xmlns="http://www.w3.org/2000/svg" viewBox="0 0 100 100">
  <path d="M50,12.5c-20.7,0-37.5,16.8-37.5,37.5s16.8,37.5,37.5,37.5c3.46,0,6.25,2.79,6.25,6.25s-2.79,6.25-6.25,6.25C22.38,100,0,77.62,0,50S22.38,0,50,0s50,22.38,50,50v6.25c0,10.35-8.4,18.75-18.75,18.75-5.72,0-10.86-2.58-14.3-6.62-4.45,4.1-10.41,6.62-16.95,6.62-13.81,0-25-11.19-25-25s11.19-25,25-25c5.45,0,10.49,1.74,14.59,4.71,1.11-.98,2.56-1.58,4.16-1.58,3.46,0,6.25,2.79,6.25,6.25v21.88c0,3.46,2.79,6.25,6.25,6.25s6.25-2.79,6.25-6.25v-6.25c0-20.7-16.8-37.5-37.5-37.5ZM62.5,50c0-6.9-5.6-12.5-12.5-12.5s-12.5,5.6-12.5,12.5,5.6,12.5,12.5,12.5,12.5-5.6,12.5-12.5Z" style="fill: #36a765;"/>
</svg>