<?xml version="1.0" encoding="UTF-8"?>
<svg id="Calque_1" xmlns="http://www.w3.org/2000/svg" viewBox="0 0 100 100">
  <path d="M73.23,0H26.77c-7.67,0-13.9,6.24-13.9,13.9v72.19c0,7.67,6.24,13.9,13.9,13.9h46.45c7.67,0,13.9-6.24,13.9-13.9V13.9c0-7.67-6.24-13.9-13.9-13.9ZM26.77,7.84h46.45c3.34,0,6.07,2.72,6.07,6.07v18.62c-.28-.06-.57-.1-.86-.1h-9.94v-9.58c0-2.16-1.75-3.92-3.92-3.92s-3.92,1.75-3.92,3.92v9.58H20.71V13.9c0-3.34,2.72-6.07,6.07-6.07ZM73.23,92.16H26.77c-3.34,0-6.07-2.72-6.07-6.07v-45.84h39.94v27.23c0,2.16,1.75,3.92,3.92,3.92s3.92-1.75,3.92-3.92v-27.23h9.94c.3,0,.59-.04.86-.1v45.95c0,3.34-2.72,6.07-6.07,6.07Z" style="fill: #36a765;"/>
</svg>