<?xml version="1.0" encoding="UTF-8"?>
<svg id="ICONS" xmlns="http://www.w3.org/2000/svg" viewBox="0 0 100 100">
  <path id="handicap" d="M59.44,84.33c-5.28,9.67-15.39,15.67-26.39,15.67-16.57,0-30.05-13.48-30.05-30.05,0-12.1,7.2-22.97,18.35-27.68,1.58-.67,3.41.07,4.08,1.65.67,1.58-.07,3.41-1.65,4.08-8.84,3.74-14.55,12.36-14.55,21.95,0,13.14,10.69,23.83,23.83,23.83,8.72,0,16.74-4.76,20.93-12.43.82-1.51,2.71-2.06,4.22-1.24,1.51.82,2.06,2.71,1.24,4.22ZM92.73,88.64l-7.9,3.16-7.44-21.21c-.03-.09-.07-.18-.11-.27-1.96-4.25-6.26-7-10.94-7h-16.71c-2.69,0-5.01-1.82-5.66-4.42l-2.16-10.52,22.99-2.87c1.7-.21,2.91-1.77,2.7-3.47s-1.76-2.91-3.47-2.7l-23.47,2.93-2.56-12.48c-.34-1.68-1.99-2.77-3.67-2.42-1.68.35-2.77,1.99-2.42,3.67l5.99,29.17s.01.07.02.1c1.31,5.44,6.13,9.23,11.72,9.23h16.71c2.22,0,4.26,1.28,5.24,3.27l8.46,24.12c.28.8.88,1.45,1.65,1.8.41.19.85.28,1.29.28.39,0,.78-.07,1.16-.22l10.92-4.37c1.59-.64,2.37-2.45,1.73-4.04-.64-1.6-2.45-2.37-4.04-1.73ZM19.82,10.75c0-5.93,4.82-10.75,10.75-10.75s10.75,4.82,10.75,10.75-4.82,10.75-10.75,10.75-10.75-4.82-10.75-10.75ZM26.04,10.75c0,2.5,2.03,4.53,4.53,4.53s4.53-2.03,4.53-4.53-2.03-4.53-4.53-4.53-4.53,2.03-4.53,4.53Z" style="fill: #36a765;"/>
</svg>