<svg width="49" height="49" viewBox="0 0 49 49" fill="none" xmlns="http://www.w3.org/2000/svg">
<path d="M7.35 14.6999C7.35 12.1008 8.3825 9.60811 10.2204 7.77026C12.0582 5.9324 14.5509 4.8999 17.15 4.8999C19.7491 4.8999 22.2418 5.9324 24.0796 7.77026C25.9175 9.60811 26.95 12.1008 26.95 14.6999C26.95 17.299 25.9175 19.7917 24.0796 21.6295C22.2418 23.4674 19.7491 24.4999 17.15 24.4999C14.5509 24.4999 12.0582 23.4674 10.2204 21.6295C8.3825 19.7917 7.35 17.299 7.35 14.6999ZM0 41.826C0 34.2846 6.10969 28.1749 13.6511 28.1749H20.6489C28.1903 28.1749 34.3 34.2846 34.3 41.826C34.3 43.0816 33.2817 44.0999 32.0261 44.0999H2.27391C1.01828 44.0999 0 43.0816 0 41.826ZM46.6495 44.0999H36.0992C36.5127 43.3802 36.7577 42.5457 36.7577 41.6499V41.0374C36.7577 36.3901 34.6828 32.2174 31.4136 29.4152C31.5973 29.4076 31.7734 29.3999 31.9572 29.3999H36.6581C43.4722 29.3999 49 34.9277 49 41.7494C49 43.051 47.9434 44.0999 46.6495 44.0999ZM33.075 24.4999C30.7016 24.4999 28.5578 23.5352 27.0036 21.981C28.5119 19.9444 29.4 17.4255 29.4 14.6999C29.4 12.648 28.8947 10.711 27.9989 9.01131C29.423 7.97006 31.1763 7.3499 33.075 7.3499C37.8142 7.3499 41.65 11.1857 41.65 15.9249C41.65 20.6641 37.8142 24.4999 33.075 24.4999Z" fill="#36A765"/>
</svg>
