<?xml version="1.0" encoding="UTF-8"?>
<svg id="ICONS" xmlns="http://www.w3.org/2000/svg" viewBox="0 0 100 100">
  <path id="parking" d="M50,0C26.58,0,7.53,19.05,7.53,42.47c0,19.81,13.63,36.49,32,41.16v9.6c0,3.73,3.04,6.77,6.77,6.77h7.4c3.73,0,6.77-3.04,6.77-6.77v-9.6c18.37-4.67,32-21.35,32-41.16C92.47,19.05,73.42,0,50,0ZM54.6,93.23c0,.49-.4.9-.9.9h-7.4c-.49,0-.9-.4-.9-.9v-8.55c1.51.16,3.04.25,4.6.25s3.08-.09,4.6-.25v8.55ZM50,79.07c-20.18,0-36.6-16.42-36.6-36.6S29.82,5.87,50,5.87s36.6,16.42,36.6,36.6-16.42,36.6-36.6,36.6ZM52.65,19.59h-11.51c-1.62,0-2.94,1.31-2.94,2.94v42.45c0,1.62,1.31,2.94,2.94,2.94s2.94-1.31,2.94-2.94v-15.58h8.57c8.22,0,14.91-6.69,14.91-14.91s-6.69-14.91-14.91-14.91ZM52.65,43.53h-8.57v-18.07h8.57c4.98,0,9.04,4.05,9.04,9.04s-4.05,9.04-9.04,9.04Z" style="fill: #36a765;"/>
</svg>