<?xml version="1.0" encoding="UTF-8"?>
<svg id="ICONS" xmlns="http://www.w3.org/2000/svg" viewBox="0 0 100 100">
  <path id="pet" d="M17.91,55.03c3.35-.92,6.11-3.13,7.79-6.23,3.84-7.12,1.11-16.72-5.96-20.98-3.41-2.05-7.41-2.52-10.97-1.28-3.54,1.23-6.38,4.06-7.77,7.76-.32.84-.51,1.68-.69,2.43-.07.3-.14.6-.22.9-.06.22-.09.45-.09.69v2.86c0,.35.07.7.2,1.02.01.03.02.05.03.08.89,4.99,3.5,8.81,7.74,11.36,2.04,1.23,4.31,1.85,6.59,1.85,1.12,0,2.24-.15,3.34-.45ZM10.76,49c-2.95-1.77-4.66-4.35-5.24-7.88-.03-.18-.07-.34-.11-.47v-1.99c.06-.23.11-.47.17-.7.15-.64.29-1.24.48-1.74.84-2.23,2.44-3.85,4.49-4.57,2.07-.72,4.35-.43,6.41.81,4.68,2.81,6.5,9.12,3.99,13.78-.96,1.79-2.55,3.06-4.46,3.58-1.93.53-3.96.24-5.72-.82ZM99.8,50.65c-.95-6.09-6.1-10.6-12.25-10.71-4.57-.06-8.99,2.07-12.08,5.92-3.07,3.81-4.28,8.74-3.22,13.18.14.58.31,1.12.51,1.66-1.78-2.76-3.47-5.29-5.13-7.68-4.49-6.47-11.04-10.07-18.93-10.43-9.31-.42-17,3.53-22.27,11.42-2.39,3.58-4.73,7.27-6.99,10.83-.93,1.46-1.85,2.92-2.78,4.37-1.73,2.7-2.66,5.71-2.78,8.95,0,.17,0,.33.03.5.05.32.08.65.12.98.09.83.19,1.7.41,2.61,1.17,4.8,4.32,8.83,8.65,11.05,4.34,2.23,9.46,2.43,14.05.57,3.28-1.33,6.3-2.04,9.23-2.17,3.71-.17,7.55.6,11.75,2.35,1.77.74,3.68,1.11,5.7,1.11.74,0,1.5-.05,2.27-.15,5.73-.75,10.62-4.27,13.09-9.41,2.45-5.1,2.13-11.07-.84-15.96-.92-1.52-1.81-2.96-2.68-4.36,2.26,2.27,5.34,3.58,8.8,3.58.26,0,.53,0,.8-.02,5.41-.31,9.74-3.07,12.53-7.97.76-1.34,1.2-2.79,1.58-4.06.15-.51.31-1.03.48-1.53.1-.29.15-.59.15-.89v-2.69c0-.23-.03-.46-.09-.69l-.11-.36ZM74.06,83.14c-1.66,3.45-4.83,5.72-8.7,6.23-1.86.24-3.56.05-5.05-.57-4.53-1.89-8.78-2.81-12.94-2.81-.42,0-.83,0-1.25.03-3.59.16-7.23,1-11.12,2.58-3.06,1.24-6.45,1.11-9.32-.36-2.9-1.49-4.93-4.09-5.72-7.33-.14-.56-.21-1.22-.29-1.91-.03-.29-.07-.58-.1-.86.11-2.15.73-4.07,1.88-5.86.93-1.46,1.86-2.93,2.79-4.39,2.24-3.54,4.56-7.19,6.92-10.72,4.16-6.23,9.97-9.22,17.28-8.89,6.14.28,11.02,2.97,14.52,7.99,3.24,4.67,6.59,9.86,10.53,16.34,2,3.29,2.21,7.13.57,10.54ZM94.6,53.94c-.14.43-.27.87-.41,1.31-.33,1.1-.64,2.13-1.1,2.94-1.89,3.33-4.56,5.05-8.14,5.25-3.73.21-6.57-1.95-7.44-5.66-.67-2.83.14-6.02,2.18-8.55,1.98-2.45,4.82-3.91,7.63-3.91.05,0,.1,0,.15,0,3.57.07,6.46,2.59,7.01,6.13.03.2.08.4.13.6v1.87ZM36.84,38.97c.36.03.71.04,1.07.04,3.99,0,7.87-1.73,10.76-4.84,6.07-6.52,6.17-17.63.2-24.26-2.78-3.09-6.45-4.89-10.32-5.07-3.77-.16-7.43,1.22-10.34,3.92-3.64,3.38-5.47,7.73-5.59,13.31,0,.02,0,.04,0,.06,0,3.55,1.14,7.19,3.21,10.24,2.61,3.85,6.62,6.25,11,6.59ZM31.9,12.73c1.83-1.7,4.1-2.58,6.42-2.48,2.41.11,4.74,1.28,6.54,3.28,4.1,4.55,4.03,12.48-.14,16.96-2.06,2.21-4.7,3.3-7.46,3.09-2.77-.21-5.24-1.72-6.94-4.24-1.46-2.16-2.27-4.71-2.28-7.18.09-4.08,1.32-7.07,3.86-9.43ZM63.35,45.37c1.3.42,2.64.63,3.99.63,2.7,0,5.43-.84,7.85-2.46,4.75-3.18,7.31-7.97,7.6-14.25,0-.14,0-.28-.01-.42-.02-.22-.04-.45-.07-.68-.06-.63-.12-1.35-.26-2.09-.16-.86-.42-1.74-.78-2.7-1.38-3.69-4.22-6.6-7.78-7.98-3.56-1.39-7.44-1.18-10.91.59-7.47,3.79-11.07,12.93-8.2,20.81,1.52,4.16,4.64,7.27,8.56,8.55ZM65.43,20.82c1.18-.6,2.44-.9,3.69-.9.96,0,1.91.18,2.82.53,2.16.84,3.82,2.56,4.68,4.85.25.67.42,1.25.52,1.8.09.49.14,1.04.19,1.57.02.19.03.38.05.56-.26,4.49-1.91,7.61-5.2,9.81-2.28,1.52-4.82,1.94-7.16,1.18-2.37-.77-4.2-2.65-5.16-5.27-1.92-5.27.57-11.61,5.56-14.14Z" style="fill: #36a765;"/>
</svg>