<?xml version="1.0" encoding="UTF-8"?>
<svg id="ICONS" xmlns="http://www.w3.org/2000/svg" viewBox="0 0 100 100">
  <path id="search" d="M98.07,89.36l-18.78-18.23c6.08-7.46,9.39-16.85,9.39-26.52,0-8.56-2.49-16.85-7.46-24.03-4.97-7.18-11.88-12.71-19.89-16.02C53.31,1.24,44.2.41,35.64,2.07c-8.56,1.66-16.57,5.8-22.65,11.88C6.91,20.03,2.49,27.76.83,36.05-.83,44.34,0,53.18,3.31,61.19c3.31,8.01,9.12,14.64,16.3,19.34,7.18,4.7,15.75,7.18,24.59,7.18,9.94,0,19.34-3.31,27.07-9.12l18.78,18.51c.55.55,1.1.83,1.93,1.1.55,0,1.38.55,2.21.55s1.38,0,2.21-.55c.55,0,1.38-.55,1.93-1.1s.83-1.1,1.1-1.66c.28-.55.55-1.38.55-2.21s0-1.38-.55-2.21c-.28-.55-.83-1.38-1.1-1.66h-.28ZM11.33,44.34c0-6.35,1.93-12.71,5.52-17.96s8.84-9.39,14.92-11.88c6.08-2.49,12.71-3.04,19.06-1.93,6.35,1.38,12.43,4.42,17.13,8.84,4.7,4.42,7.73,10.22,9.12,16.57,1.38,6.35.55,12.71-1.93,18.78-2.49,5.8-6.91,11.05-12.15,14.64-5.52,3.59-11.88,5.52-18.51,5.52s-17.13-3.31-23.48-9.39c-6.35-6.08-9.67-14.36-9.67-22.93v-.28Z" style="fill: #fff;"/>
</svg>