<svg width="41" height="41" viewBox="0 0 41 41" fill="none" xmlns="http://www.w3.org/2000/svg">
<path d="M37.9473 36.0001L31.1344 29.3616C33.3325 26.6249 34.5252 23.2453 34.5208 19.7662C34.5208 16.6677 33.5806 13.6388 31.8192 11.0626C30.0578 8.4863 27.5542 6.47834 24.625 5.29261C21.6958 4.10689 18.4726 3.79665 15.363 4.40112C12.2535 5.0056 9.39711 6.49765 7.15522 8.68859C4.91333 10.8795 3.38658 13.671 2.76805 16.7099C2.14951 19.7488 2.46697 22.8987 3.68027 25.7613C4.89357 28.6239 6.94823 31.0706 9.58441 32.792C12.2206 34.5134 15.3199 35.4322 18.4904 35.4322C22.0505 35.4366 25.5086 34.271 28.309 32.1228L35.1019 38.7808C35.2882 38.9644 35.5098 39.1101 35.754 39.2095C35.9982 39.3089 36.2601 39.3601 36.5246 39.3601C36.7891 39.3601 37.051 39.3089 37.2952 39.2095C37.5394 39.1101 37.761 38.9644 37.9473 38.7808C38.1351 38.5988 38.2842 38.3822 38.3859 38.1436C38.4877 37.905 38.54 37.649 38.54 37.3905C38.54 37.132 38.4877 36.876 38.3859 36.6374C38.2842 36.3988 38.1351 36.1822 37.9473 36.0001V36.0001ZM6.46763 19.7662C6.46763 17.4423 7.17275 15.1707 8.49383 13.2385C9.81491 11.3063 11.6926 9.8003 13.8895 8.911C16.0864 8.02171 18.5038 7.78903 20.8359 8.24238C23.1681 8.69574 25.3104 9.81478 26.9918 11.458C28.6732 13.1012 29.8183 15.1948 30.2822 17.4739C30.7461 19.7531 30.508 22.1156 29.598 24.2625C28.6881 26.4095 27.1471 28.2445 25.1699 29.5356C23.1928 30.8266 20.8683 31.5157 18.4904 31.5157C15.3018 31.5157 12.2437 30.2778 9.98902 28.0744C7.73431 25.8709 6.46763 22.8823 6.46763 19.7662Z" fill="white"/>
</svg>
