<?xml version="1.0" encoding="UTF-8"?>
<svg id="ICONS" xmlns="http://www.w3.org/2000/svg" viewBox="0 0 100 100">
  <path id="users" d="M14.93,29.96c0-5.32,2.04-10.43,5.93-14.11,3.68-3.68,8.79-5.93,14.11-5.93s10.43,2.04,14.11,5.93c3.68,3.68,5.93,8.79,5.93,14.11s-2.04,10.43-5.93,14.11c-3.68,3.68-8.79,5.93-14.11,5.93s-10.43-2.04-14.11-5.93c-3.68-3.68-5.93-8.79-5.93-14.11ZM0,85.38c0-15.34,12.47-28.02,28.02-28.02h14.31c15.34,0,28.02,12.47,28.02,28.02,0,4.84-2.04,4.7-4.7,4.7H4.7c-2.66,0-4.7-2.04-4.7-4.7ZM95.3,90.08h-21.68c.82-1.43,1.43-3.27,1.43-5.11v-1.23c0-9.41-4.29-18-10.84-23.72h10.63c13.91,0,25.15,11.25,25.15,25.15,0,5.04-2.25,4.91-4.91,4.91h.2ZM67.69,50c-4.91,0-9.2-2.04-12.47-5.11,3.07-4.09,4.91-9.41,4.91-14.93s-1.02-8.18-2.86-11.66c2.86-2.04,6.54-3.48,10.43-3.48,9.61,0,17.59,7.77,17.59,17.59s-7.77,17.59-17.59,17.59Z" style="fill: #36a765;"/>
</svg>