<?xml version="1.0" encoding="UTF-8"?>
<svg id="Calque_1" xmlns="http://www.w3.org/2000/svg" viewBox="0 0 100 100">
  <path d="M49.99,11.11c-14.03,0-25.26,6.39-33.43,13.99C8.43,32.64,3,41.67.43,47.86c-.57,1.37-.57,2.9,0,4.27,2.57,6.2,8,15.23,16.13,22.76,8.18,7.6,19.41,13.99,33.43,13.99s25.26-6.39,33.43-13.99c8.12-7.55,13.56-16.56,16.14-22.76.57-1.37.57-2.9,0-4.27-2.59-6.2-8.02-15.23-16.14-22.76-8.18-7.6-19.41-13.99-33.43-13.99ZM24.99,50c0-6.63,2.63-12.99,7.32-17.68,4.69-4.69,11.05-7.32,17.68-7.32s12.99,2.63,17.68,7.32c4.69,4.69,7.32,11.05,7.32,17.68s-2.63,12.99-7.32,17.68c-4.69,4.69-11.05,7.32-17.68,7.32s-12.99-2.63-17.68-7.32c-4.69-4.69-7.32-11.05-7.32-17.68ZM49.99,38.89c0,6.13-4.98,11.11-11.11,11.11-1.23,0-2.41-.21-3.52-.57-.95-.31-2.07.28-2.03,1.28.05,1.2.23,2.4.56,3.59,2.38,8.89,11.53,14.17,20.41,11.79,8.89-2.38,14.17-11.53,11.79-20.42-1.93-7.2-8.3-12.05-15.38-12.34-1.01-.03-1.6,1.06-1.28,2.03.36,1.11.57,2.29.57,3.52Z" style="fill: #36a765;"/>
</svg>