<?xml version="1.0" encoding="UTF-8"?>
<svg id="ICONS" xmlns="http://www.w3.org/2000/svg" viewBox="0 0 100 100">
  <path id="wifi" d="M85.83,47.85c1.02,1.26.82,3.11-.44,4.13-.54.44-1.2.65-1.84.65-.86,0-1.7-.37-2.28-1.09-7.89-9.75-19.29-15.35-31.28-15.35s-23.37,5.59-31.27,15.33c-1.02,1.26-2.87,1.45-4.13.43-1.26-1.02-1.45-2.87-.43-4.13,9.01-11.12,22.07-17.5,35.83-17.5s26.83,6.39,35.84,17.53ZM49.99,51.21c-8.81,0-16.97,4.23-22.37,11.59-.96,1.31-.68,3.14.63,4.1,1.31.96,3.14.68,4.1-.63,4.29-5.84,10.72-9.2,17.64-9.2s13.36,3.36,17.64,9.21c.57.79,1.47,1.2,2.37,1.2.6,0,1.21-.18,1.73-.57,1.31-.96,1.59-2.79.64-4.1-5.4-7.38-13.56-11.62-22.38-11.62ZM59.22,81.33c0,5.09-4.14,9.23-9.23,9.23s-9.23-4.14-9.23-9.23c0-.77.09-1.53.28-2.26,0-.01,0-.03.01-.04,0-.01,0-.03.01-.04,1.05-4.05,4.71-6.88,8.93-6.88,5.09,0,9.23,4.14,9.23,9.23ZM53.35,81.33c0-1.85-1.51-3.36-3.36-3.36-1.54,0-2.87,1.03-3.25,2.52,0,.04-.01.08-.02.12-.05.24-.08.48-.08.72,0,1.85,1.51,3.36,3.36,3.36s3.36-1.51,3.36-3.36ZM49.99,9.44C31.24,9.44,13.27,18.02.69,32.96c-1.04,1.24-.88,3.09.36,4.14,1.24,1.04,3.09.88,4.14-.36,11.46-13.62,27.8-21.43,44.81-21.43s33.37,7.82,44.82,21.45c.58.69,1.41,1.05,2.25,1.05.67,0,1.34-.23,1.89-.69,1.24-1.04,1.4-2.89.36-4.14-12.58-14.96-30.55-23.54-49.32-23.54Z" style="fill: #36a765;"/>
</svg>