<?xml version="1.0" encoding="UTF-8"?>
<svg xmlns="http://www.w3.org/2000/svg" version="1.1" viewBox="0 0 68 68">
  <defs>
    <style>
      .cls-1 {
        fill: #36a765;
      }
    </style>
  </defs>
  <!-- Generator: Adobe Illustrator 28.7.1, SVG Export Plug-In . SVG Version: 1.2.0 Build 142)  -->
  <g>
    <g id="Calque_1">
      <g id="logo">
        <path class="cls-1" d="M67.3,35.5c0,1.5-.2,3-.4,4.4,0,.4-.2.9-.2,1.3-.3,1.3-.6,2.7-1.1,3.9,0,.4-.3.8-.5,1.3-.4,1.1-.9,2.1-1.4,3.1s-.4.8-.7,1.2c-.6,1-1.2,2-2,3-.3.4-.5.7-.8,1.1-1.4,1.7-2.9,3.3-4.5,4.7h0l-.4.4-.3.2h0c-.2,0-.4.3-.5.4-.2,0-.4.3-.5.4h0c-.2.2-.4.3-.6.5-.2,0-.4.3-.6.4-.3.2-.5.3-.8.5-1.1.7-2.3,1.4-3.5,1.9-4.5,2.1-9.3,3.2-14.4,3.2s-13.4-2-19-5.9c-.4-.3-.8-.5-1.1-.8-1-.8-2-1.6-3-2.5-.4-.4-.8-.8-1.2-1.1-1.5-1.6-2.9-3.3-4-5.1-.6-.9-1.1-1.8-1.5-2.7-.5-.9-.9-1.8-1.3-2.8l-.4-.9h0c-.3-.7-.5-1.4-.7-2.1-.2-.5-.3-1.1-.4-1.6-.4-1.5-.6-3.1-.8-4.6,0-.5,0-1,0-1.4v-.7c0-.5.2-.9.5-1.3.3-.3.8-.5,1.2-.5h9v-15.4l-2.2,2.2c-.2.2-.4.3-.6.3s-.5,0-.6-.2l-1.2-1.2c-.3-.3-.4-.9,0-1.2L23,.9c.2-.2.4-.3.6-.3h0c.2,0,.5,0,.6.3l16.7,17.4c.3.3.3.9,0,1.2l-1.2,1.2c-.2.2-.4.2-.6.2h0c-.2,0-.4-.1-.6-.3l-2.2-2.2v15.4h29.2c.5,0,.9.2,1.2.5.3.3.5.8.5,1.3h0ZM35.2,33.7v-16.7l-1.6-1.6-1-1.1v35.4h.4c.5,0,1.1.3,1.6.4.2,0,.4,0,.7.2v-16.6h-.1ZM18.4,43v3.9h0c1.2.2,2.4.3,3.6.5v-23.9l-3.2-3.2,3.2-3.2V6.9l-3.7,3.8v32.3h.1ZM29.1,10.7l-3.7-3.8v10.3l3.2,3.2-3.2,3.2v24.5h.1c1.3.2,2.4.5,3.6.7V10.7ZM25.5,19.1l-1.7-1.7-1.7,1.7-1.3,1.3,1.3,1.3,1.7,1.7,3-3-1.3-1.3ZM10.9,16.7l.7-.7.7-.7h0l2.6-2.7,2.8-2.9,4.3-4.5,1.1-1.1c.3-.3.9-.3,1.3,0l1.1,1.1,4.3,4.5,2.8,2.9,2.6,2.7h0l.7.7.7.7,2.8,2.9.9-.8-7.6-7.9-1.1-1.2-7.7-7.9-7.7,7.9-1.1,1.2-7.6,7.9.9.8,2.8-2.9h-.3ZM12.4,33.7v12.6c.8,0,1.7,0,2.6.2V14.3l-1,1.1-1.6,1.6v16.7ZM4.8,38.1c1.2,1,2.3,1.8,4.5,1.8s1.3,0,1.8-.2v-4.7H2c-.1,0-.2,0-.3,0,0,0-.1.2-.1.3v.9c1.4.4,2.3,1.1,3.1,1.8h0ZM4.8,43.8c1.2,1,2.3,1.8,4.5,1.8s1.3,0,1.8-.2v-4.3c-.5,0-1.1.2-1.8.2-2.7,0-4.1-1.1-5.3-2.1-.7-.6-1.3-1.1-2.2-1.4.1,1.4.4,2.8.7,4.2,0,.2,0,.3,0,.5.9.4,1.5.9,2.2,1.5v-.2ZM5.6,46h0c-.6-.4-1.2-.8-1.7-1.2-.3-.2-.5-.4-.8-.6.2.6.4,1.2.6,1.7h1.9ZM53.3,59.8c-.9-.5-1.8-.9-2.8-1.4-.2,0-.4-.2-.7-.3-.4-.2-.8-.4-1.2-.6-.5-.2-.9-.4-1.4-.6-.9-.4-1.8-.8-2.7-1.1-.7-.3-1.4-.6-2.1-.8-1.1-.4-2.3-.9-3.4-1.2-.6-.2-1.1-.4-1.7-.6-1.4-.5-2.9-.9-4.4-1.3-.2,0-.4,0-.5-.2-.4,0-.8-.2-1.1-.3-.3,0-.6-.2-.9-.2-2-.5-4-1-6-1.4-.4,0-.8-.2-1.3-.2-.7,0-1.4-.3-2-.4-.8,0-1.6-.3-2.3-.4-.8,0-1.5-.2-2.3-.3-.4,0-.7,0-1.1,0-2-.3-3.9-.5-5.9-.6h0c-.7,0-1.3,0-2,0h0c-1.1,0-2.2,0-3.3-.2,0,0,.1.3.2.4,0,.2.2.4.3.6,0,.2.2.5.4.7.2.4.5.9.7,1.3.3.4.5.9.8,1.3.2.2.3.5.5.7,1,1.5,2.1,2.9,3.4,4.1.1,0,.2.2.3.3.3.3.5.5.8.8,0,0,.2.2.3.2.8.8,1.7,1.5,2.6,2.2h.1c.3.3.6.5.9.8,0,0,.1,0,.2,0,5.3,3.6,11.6,5.5,18.1,5.5s8.8-.9,12.8-2.6h0c.3,0,.6-.3,1-.4.2,0,.4-.2.7-.3s.5-.3.8-.4h0c.2,0,.4-.2.5-.3.6-.3,1.1-.7,1.7-1,.2,0,.4-.3.6-.4h0c.2,0,.4-.3.6-.4.3-.2.5-.4.8-.6h0v-.3ZM59,54.4h-.9c-2.2,0-3.3.8-4.5,1.8-.6.5-1.2,1-1.9,1.3,1,.5,1.9,1,2.8,1.5l.2-.2c1.6-1.3,3-2.8,4.3-4.4ZM62,50c-1-.8-2-1.3-3.9-1.3s-3.3.8-4.5,1.8-2.6,2.1-5.3,2.1-4.1-1.1-5.3-2.1-2.3-1.8-4.5-1.8-1.5,0-2.1.3v2.4c1,.3,2.1.7,3.1,1,1.1.4,2.3.8,3.4,1.3,2.1.8,4.2,1.7,6.3,2.6.3,0,.6.3.8.4,1.1-.3,1.9-.9,2.7-1.6,1.2-1,2.6-2.1,5.3-2.1s1.3,0,1.8.2c0,0,0,0,0-.2.7-1,1.3-1.9,1.9-2.9h.2ZM64,45.8c-.5-.3-.9-.7-1.4-1-1.2-1-2.3-1.8-4.5-1.8s-3.3.8-4.5,1.8-2.6,2.1-5.3,2.1-4.1-1.1-5.3-2.1-2.3-1.8-4.5-1.8-1.5,0-2.1.3v4.3c.6-.2,1.3-.3,2.1-.3,2.7,0,4.1,1.1,5.3,2.1s2.3,1.8,4.5,1.8,3.3-.8,4.5-1.8,2.6-2.1,5.3-2.1,3.4.7,4.5,1.5c.5-1,.9-1.9,1.3-2.9h.1ZM65.3,40.9c-1.2-.4-2-1.1-2.8-1.7-1.2-1-2.3-1.8-4.5-1.8s-3.3.8-4.5,1.8-2.6,2.1-5.3,2.1-4.1-1.1-5.3-2.1-2.3-1.8-4.5-1.8-1.5,0-2.1.3v4.3c.6-.2,1.3-.3,2.1-.3,2.7,0,4.1,1.1,5.3,2.1s2.3,1.8,4.5,1.8,3.3-.8,4.5-1.8,2.6-2.1,5.3-2.1,4.1,1.1,5.3,2.1c.3.3.7.5,1,.8.4-1.2.7-2.4,1-3.6h0ZM66.1,35.4c0,0,0-.2,0-.3,0,0-.2,0-.3,0h-29.2v1.3c.6-.2,1.3-.3,2.1-.3,2.7,0,4.1,1.1,5.3,2.1s2.3,1.8,4.5,1.8,3.3-.8,4.5-1.8,2.6-2.1,5.3-2.1,4.1,1.1,5.3,2.1c.7.6,1.4,1.1,2.2,1.4.2-1.3.4-2.7.4-4.1h0ZM46.3,22.5l1.2,2.6h0l2.7.4h0l-2,2h0l.5,2.8h0l-2.4-1.3h0l-2.4,1.3h0l.5-2.8h0l-2-2h0l2.7-.4h0l1.2-2.6h0ZM58.3,22.5l1.2,2.6h0l2.7.4h0l-2,2h0l.5,2.8h0l-2.4-1.3h0l-2.4,1.3h0l.5-2.8h0l-2-2h0l2.7-.4h0l1.2-2.6h0Z"/>
      </g>
    </g>
  </g>
</svg>