<?xml version="1.0" encoding="UTF-8"?>
<svg xmlns="http://www.w3.org/2000/svg" version="1.1" viewBox="0 0 355.9 355.9">
  <defs>
    <style>
      .cls-1 {
        fill: #36a765;
      }
    </style>
  </defs>
  <g>
    <g id="icon-HDP">
      <path class="cls-1"
        d="M354.9,184.5c-.3,7.8-1,15.6-2.3,23.2-.4,2.3-.8,4.6-1.3,6.9-1.5,7-3.4,14-5.7,20.8-.7,2-1.5,4.2-2.4,6.7-2.2,5.6-4.7,11.2-7.5,16.6-1.1,2.1-2.2,4.1-3.4,6.3-3,5.4-6.5,10.8-10.3,16.1-1.3,1.9-2.9,3.9-4.5,6-7.2,9.1-15.3,17.5-24,24.9h0s-2.4,1.9-2.4,1.9l-1.5,1.2c-.2.1-.3.2-.5.4-.9.7-1.9,1.5-2.8,2.2-1,.7-1.9,1.5-2.9,2.2-.1.1-.2.2-.3.3-1.1.8-2.2,1.6-3.4,2.4-1.1.8-2.2,1.5-3.3,2.3-1.3.9-2.7,1.8-4.1,2.6-6,3.8-12.3,7.2-18.7,10.2-23.8,11.2-49.4,16.9-76,16.9s-70.9-10.7-100.6-31c-2.1-1.4-4.1-2.8-6-4.3-5.4-4.1-10.8-8.5-15.8-13.3-2.1-2-4.1-4-6.1-6.1-7.9-8.2-15.1-17.3-21.3-26.9-2.9-4.5-5.7-9.3-8.2-14.1-2.5-4.8-4.8-9.8-6.8-14.7l-2-4.9h.1c-1.4-3.6-2.6-7.3-3.7-11-.9-2.9-1.7-5.8-2.3-8.6-2-8.1-3.3-16.3-4.1-24.5-.2-2.7-.4-5.1-.5-7.3,0-1.2-.1-2.4-.2-3.7,0-2.5.8-4.8,2.6-6.6,1.7-1.8,4.1-2.7,6.6-2.7h47.7v-81.3l-11.4,11.9c-.9.9-2,1.4-3.3,1.4-1.2,0-2.4-.4-3.3-1.3l-6.5-6.2c-1.8-1.7-1.9-4.7-.1-6.5L120.9,1.4c.9-.9,2.1-1.4,3.3-1.4h0c1.2,0,2.5.5,3.3,1.4l88.5,91.8c1.7,1.8,1.7,4.7-.1,6.5l-6.5,6.2c-.9.8-2,1.3-3.2,1.3h-.1c-1.2,0-2.4-.5-3.2-1.4l-11.5-11.9v81.4h154.2c2.5,0,4.8,1,6.6,2.7,1.7,1.8,2.6,4.1,2.6,6.6ZM184.6,175.2v-88.5l-8.4-8.7-5.5-5.7v187c.3,0,.6.1.9.2.4.1.8.2,1.2.3,2.9.7,5.6,1.5,8.3,2.2,1.2.3,2.4.6,3.5,1v-87.8ZM95.8,224.3v20.7c.2,0,.3,0,.5,0,6.2.8,12.6,1.7,19,2.8v-126.2l-16.9-16.7,16.9-16.8v-54.7l-19.5,20.2v170.7ZM152.7,53.6l-19.5-20.2v54.7l16.9,16.8-16.9,16.7v129.4c.2,0,.4,0,.6.1,6.7,1.3,12.8,2.6,18.8,3.9V53.6ZM133.2,97.8l-9-9-9,8.9-7.1,7,7.1,7,9,8.9,16.1-15.9-7.1-7ZM56.9,85.3l3.5-3.6,3.5-3.6v-.2h.1l13.7-14.2,14.7-15.3,22.7-23.6,5.7-5.9c1.7-1.8,4.9-1.8,6.7,0l5.7,5.9,22.7,23.6,14.8,15.3,13.7,14.2h.1c0,.1,3.5,3.7,3.5,3.7l3.5,3.6,14.8,15.4,4.5-4.3-40.1-41.6-6-6.3L124.2,6.5l-40.5,41.9-6,6.2-40.2,41.6,4.5,4.3,14.8-15.4ZM63.9,175.2v66.4c4.4.3,9,.8,13.9,1.3V72.3l-5.5,5.7-8.4,8.7v88.5ZM23.8,198.5c6.4,5.2,12,9.6,23.7,9.6s6.8-.5,9.5-1.2v-24.8H9.2c-.6,0-1.2.2-1.6.7-.4.4-.6,1-.6,1.6,0,1.2,0,2.4.2,3.5,0,.3,0,.7,0,1,7.2,2.1,12,6,16.5,9.6ZM23.8,228.4c6.4,5.2,12,9.6,23.7,9.6s6.8-.5,9.5-1.2v-22.8c-2.8.6-5.9,1-9.5,1-14.1,0-21.5-5.9-28-11.2-3.7-3-7.1-5.7-11.5-7.5.8,7.3,2,14.7,3.8,22,.2.8.4,1.6.6,2.4,4.6,2.2,8.1,5,11.5,7.7ZM28.2,240.1h0c-3.4-1.9-6.2-4.2-8.8-6.3-1.4-1.1-2.8-2.3-4.2-3.3,1,3.1,2.1,6.2,3.3,9.3,3.3.1,6.5.2,9.8.4ZM281,313.1c-4.8-2.5-9.7-5-14.7-7.4-1.1-.6-2.3-1.1-3.5-1.7-2.2-1-4.4-2.1-6.6-3.1-2.4-1.1-4.9-2.2-7.4-3.3-4.7-2.1-9.4-4.1-14.1-6-3.7-1.5-7.5-3-11.2-4.5-6-2.3-12-4.5-17.8-6.5-3-1-6-2.1-9.1-3.1-7.6-2.5-15.3-4.9-23-7.1-.9-.3-1.9-.5-2.8-.8-2-.6-4-1.1-6.1-1.6-1.5-.4-3-.8-4.5-1.2-10.4-2.7-21-5.2-31.6-7.4-2.2-.5-4.5-.9-6.7-1.3-3.6-.7-7.2-1.4-10.8-2-4.1-.7-8.2-1.4-12.4-2.1-4-.6-8-1.2-12.1-1.8-1.9-.3-3.8-.5-5.8-.8-10.3-1.3-20.8-2.4-31.2-3.2h-.2c-3.5-.3-7.1-.6-10.7-.8h-.2c-5.7-.4-11.5-.7-17.2-.9.3.8.7,1.6,1,2.3.5,1.1,1,2.1,1.5,3.2.6,1.3,1.2,2.5,1.9,3.7,1.2,2.3,2.4,4.6,3.7,6.8,1.3,2.3,2.7,4.5,4.1,6.7.9,1.3,1.7,2.6,2.6,3.9,5.3,7.8,11.3,15.1,17.8,21.9.5.6,1.1,1.1,1.6,1.7,1.4,1.4,2.8,2.8,4.2,4.1.5.4.9.9,1.4,1.3,4.4,4.1,9,7.9,13.8,11.4.3.2.5.4.8.6,1.6,1.2,3.2,2.4,4.9,3.5.3.2.7.5,1,.7,28.3,19,61.3,29.1,95.6,29.1s46.5-4.7,67.9-14h0c1.7-.7,3.4-1.5,5.1-2.3,1.2-.6,2.3-1.1,3.5-1.7,1.5-.7,2.9-1.5,4.3-2.2.2-.1.5-.2.7-.4,1-.5,1.9-1,2.9-1.6,3-1.7,5.9-3.5,8.8-5.3,1-.7,2-1.3,3-2,0,0,.1,0,.2-.1,1-.7,2.1-1.4,3.1-2.2,1.3-1,2.7-1.9,4-3h0ZM310.7,284.3c-1.5-.2-3.1-.3-4.8-.3-11.7,0-17.2,4.5-23.7,9.6-3,2.4-6.3,5.1-10.3,7.1,5.1,2.5,10.1,5.1,14.9,7.7.4-.3.8-.6,1.1-1,8.2-7,15.9-14.8,22.7-23.2ZM326.4,261.2c-5.3-4-10.7-7.1-20.5-7.1s-17.2,4.5-23.7,9.6c-6.5,5.2-13.9,11.2-28,11.2s-21.5-5.9-28-11.2c-6.4-5.2-12-9.6-23.7-9.6s-8,.6-11,1.7v12.8c5.5,1.7,11,3.6,16.4,5.4,5.9,2,12,4.3,18.1,6.6,11.1,4.3,22.3,9,33.1,14,1.5.7,3,1.4,4.5,2.1,5.9-1.6,9.9-4.9,14.3-8.4,6.5-5.3,13.9-11.2,28-11.2s6.7.4,9.5,1c.2-.3.5-.7.7-1,3.7-5.1,7-10.3,10-15.5,0-.2.2-.3.3-.5ZM336.8,239.1c-2.7-1.7-5-3.5-7.2-5.3-6.4-5.2-12-9.6-23.7-9.6s-17.2,4.5-23.7,9.6c-6.5,5.2-13.9,11.2-28,11.2s-21.5-5.9-28-11.2c-6.4-5.2-12-9.6-23.7-9.6s-8,.6-11,1.7v22.7c3.2-.9,6.8-1.4,11-1.4,14.1,0,21.5,6,28,11.2,6.4,5.2,12,9.6,23.7,9.6s17.2-4.5,23.7-9.6c6.5-5.3,13.9-11.2,28-11.2s18.1,3.7,23.8,7.9c2.6-5.1,4.9-10.3,6.9-15.4,0-.2.1-.3.2-.5h0ZM344.5,212.9c-6.3-2.2-10.8-5.8-14.9-9.1-6.4-5.2-12-9.6-23.7-9.6s-17.2,4.5-23.7,9.6c-6.5,5.2-13.9,11.2-28,11.2s-21.5-5.9-28-11.2c-6.4-5.2-12-9.6-23.7-9.6s-8,.6-11,1.7v22.8c3.2-.9,6.8-1.4,11-1.4,14.1,0,21.5,6,28,11.2,6.4,5.2,12,9.6,23.7,9.6s17.2-4.5,23.7-9.6c6.5-5.3,13.9-11.2,28-11.2s21.5,6,28,11.2c1.8,1.4,3.5,2.8,5.3,4,2.1-6.3,3.9-12.7,5.2-19.2,0,0,0-.2,0-.3h0ZM347.9,184.2c0-.6-.2-1.1-.6-1.5-.4-.4-1-.7-1.6-.7h-154.2v6.7c3.2-.9,6.8-1.4,11-1.4,14.1,0,21.5,6,28,11.2,6.4,5.2,12,9.6,23.7,9.6s17.2-4.5,23.7-9.6c6.5-5.3,13.9-11.2,28-11.2s21.5,6,28,11.2c3.8,3,7.2,5.8,11.8,7.6,1.2-7.1,1.9-14.4,2.2-21.8h0ZM243.5,116l6.4,13.7s0,0,.1,0l14.3,2.2c.1,0,.2.2,0,.3l-10.4,10.7s0,0,0,.1l2.5,15c0,.1-.1.2-.2.2l-12.8-7.1s0,0-.1,0l-12.8,7.1c-.1,0-.2,0-.2-.2l2.5-15s0,0,0-.1l-10.4-10.7c0,0,0-.2,0-.3l14.3-2.2s0,0,.1,0l6.5-13.7c0-.1.2-.1.3,0ZM307,116l6.4,13.7s0,0,.1,0l14.3,2.2c.1,0,.2.2,0,.3l-10.4,10.7s0,0,0,.1l2.5,15c0,.1-.1.2-.2.2l-12.8-7.1s0,0-.1,0l-12.8,7.1c-.1,0-.2,0-.2-.2l2.5-15s0,0,0-.1l-10.4-10.7c0,0,0-.2,0-.3l14.3-2.2s0,0,.1,0l6.5-13.7c0-.1.2-.1.3,0Z" />
    </g>
  </g>
</svg>