<?xml version="1.0" encoding="UTF-8"?>
<svg xmlns="http://www.w3.org/2000/svg" version="1.1" viewBox="0 0 625.1 217.7">
  <defs>
    <style>
      .cls-1 {
        fill: #34a765;
      }
    </style>
  </defs>
  <!-- Generator: Adobe Illustrator 28.7.1, SVG Export Plug-In . SVG Version: 1.2.0 Build 142)  -->
  <g>
    <g id="LOGOS">
      <path id="ICON" class="cls-1" d="M125.5,87.9c0,0,0-.1,0-.1l8.8-1.3s0,0,0,0l3.9-7.9c0,0,.1,0,.2,0l3.9,7.9s0,0,0,0l8.8,1.3c0,0,.1.1,0,.1l-6.3,6.2s0,0,0,0l1.5,8.7c0,0,0,.1-.1.1l-7.8-4.1s0,0,0,0l-7.8,4.1c0,0-.1,0-.1-.1l1.5-8.7s0,0,0,0l-6.3-6.2h0ZM168.1,94.1s0,0,0,0l-1.5,8.7c0,0,0,.1.1.1l7.8-4.1s0,0,0,0l7.8,4.1c0,0,.1,0,.1-.1l-1.5-8.7s0,0,0,0l6.3-6.2c0,0,0-.1,0-.1l-8.8-1.3s0,0,0,0l-3.9-7.9c0,0-.1,0-.2,0l-3.9,7.9s0,0,0,0l-8.8,1.3c0,0-.1.1,0,.1l6.3,6.2h0ZM202.9,119.7c-.9,26.4-11.8,51.1-30.8,69.5-19,18.4-44.1,28.6-70.6,28.6s-51.6-10.2-70.6-28.6C11.8,170.7.9,146,0,119.7c0-1.4.5-2.8,1.5-3.8,1-1,2.3-1.6,3.7-1.6h25.3v-46.9l-6.6,6.8c-.5.5-1.2.8-1.8.8s-1.4-.2-1.9-.7l-3.7-3.6c-1.1-1-1.1-2.7,0-3.7L67.1,14.2c1-1,2.8-1,3.8,0l50.6,52.9c1,1.1,1,2.7,0,3.7l-3.7,3.5c-.5.5-1.1.7-1.8.7h0c-.7,0-1.4-.3-1.9-.8l-6.6-6.8v46.9h90.2c1.4,0,2.8.6,3.7,1.6,1,1,1.5,2.4,1.5,3.8h0ZM19.4,68.8l2.6,2.5,8.5-8.9,2-2.1,2-2.1h0c0,0,0,0,0,0l7.8-8.2,8.4-8.8,13-13.6,3.2-3.4c1-1,2.8-1,3.8,0l3.2,3.4,13,13.6,8.4,8.8,7.9,8.2h0c0,0,2,2.2,2,2.2l2,2.1,8.5,8.9,2.6-2.5-23-24-3.4-3.6-23.1-24.2-23.1,24.2-3.4,3.6-23,24h0ZM74.1,77.8l4-4-4-4-5.2-5.2-5.2,5.2-4,4,4,4,5.2,5.1,5.2-5.1ZM85.3,44.2l-11.1-11.6v31.5l9.7,9.7-9.7,9.7v74.5c.1,0,.2,0,.4,0,3.8.7,7.3,1.5,10.8,2.2V44.2h0ZM52.7,44.2v110.3c0,0,.2,0,.3,0,3.5.5,7.2,1,10.9,1.6v-72.7l-9.7-9.7,9.7-9.7v-31.5l-11.1,11.6ZM103.5,114.3v-51l-4.8-5-3.1-3.3v107.7c.2,0,.3,0,.5.1.7.2,1.5.4,2.2.6,1.6.4,3.2.9,4.7,1.3.2,0,.4.1.5.1v-50.6h0ZM34.5,114.3v38.3c.5,0,1.1,0,1.6.1,2,.2,4.1.4,6.3.6V55l-3.1,3.3-4.8,5v51h0ZM4.1,122.2c4.1,1.2,6.9,3.5,9.4,5.5,3.7,3,6.8,5.6,13.5,5.6s2.4,0,3.4-.3v-14.8H5.2c-.3,0-.7.1-.9.4-.2.2-.4.6-.3.9,0,.9,0,1.8.2,2.6h0ZM7,140.5c2.6,1.2,4.6,2.9,6.5,4.4,3.7,3,6.8,5.6,13.5,5.6s2.4,0,3.4-.3v-13.2c-1.1.1-2.2.2-3.4.2-8.1,0-12.3-3.4-16-6.4-2.1-1.7-4-3.3-6.5-4.3.5,4.8,1.3,9.5,2.5,14.1ZM10.5,151.5c1.9,0,3.8.1,5.6.2-1.9-1.1-3.5-2.4-5.1-3.6-.8-.7-1.6-1.3-2.4-1.9.6,1.8,1.2,3.6,1.9,5.3ZM160.6,193.8c-3.4-1.8-6.9-3.6-10.5-5.3-2.7-1.3-5.4-2.5-8.1-3.8-2.5-1.1-5.1-2.2-7.6-3.3-7.2-3-14.6-5.7-22.2-8.2h0c-4.8-1.6-9.7-3.1-14.7-4.5-2-.6-4-1.1-6-1.6-5.9-1.6-11.9-3-18-4.2-3.3-.7-6.6-1.3-9.9-1.9-2.4-.4-4.8-.8-7.3-1.2-3.4-.5-6.7-1-10.1-1.4-11.1-1.4-22.5-2.4-34-2.8,5,11.4,12.2,21.9,21.4,30.8,18.3,17.7,42.4,27.5,67.9,27.5s42.2-7,59.1-19.9h0ZM177.6,177.1c-.8-.1-1.7-.2-2.7-.2-6.7,0-9.9,2.6-13.5,5.6-1.7,1.4-3.6,2.9-5.9,4.1,2.9,1.4,5.7,2.9,8.5,4.4,1.8-1.5,3.6-3.1,5.3-4.8,3-2.9,5.7-5.9,8.3-9.1h0ZM186.6,163.8c-3-2.3-6.1-4.1-11.7-4.1s-9.9,2.6-13.5,5.6c-3.7,3-7.9,6.4-16,6.4s-12.3-3.4-16-6.4c-3.7-3-6.8-5.6-13.5-5.6s-6.1.7-8.3,1.9v5.8c15,4.7,29.5,10.3,43.3,16.9,3.3-1,5.6-2.8,8.1-4.9,3.7-3,7.9-6.4,16-6.4s3.8.2,5.4.6c2.3-3.1,4.4-6.4,6.3-9.8h0ZM192.6,151.1c-1.5-1-2.9-2.1-4.1-3.1-3.7-3-6.8-5.6-13.5-5.6s-9.9,2.6-13.5,5.6c-3.7,3-7.9,6.4-16,6.4s-12.3-3.4-16-6.4c-3.7-3-6.8-5.6-13.5-5.6s-6.1.7-8.3,1.9v12.9c2.3-.9,4.9-1.5,8.3-1.5,8.1,0,12.3,3.4,16,6.4,3.7,3,6.9,5.6,13.5,5.6s9.9-2.6,13.5-5.6c3.7-3,7.9-6.4,16-6.4s10.4,2.1,13.6,4.5c1.5-3,2.9-6,4.1-9.2ZM197,136c-3.6-1.3-6.2-3.3-8.5-5.2-3.7-3-6.8-5.6-13.5-5.6s-9.9,2.6-13.5,5.6c-3.7,3-7.9,6.4-16,6.4s-12.3-3.4-16-6.4c-3.7-3-6.8-5.6-13.5-5.6s-6.1.7-8.3,1.9v12.9c2.3-.9,4.9-1.5,8.3-1.5,8.1,0,12.3,3.4,16,6.4,3.7,3,6.9,5.6,13.5,5.6s9.9-2.6,13.5-5.6c3.7-3,7.9-6.4,16-6.4s12.3,3.4,16,6.4c1,.8,2,1.6,3,2.3,1.2-3.7,2.2-7.4,3-11.3ZM198.9,119.5c0-.3-.1-.7-.4-.9-.2-.2-.6-.4-.9-.4h-90.2v4.5c2.3-.9,4.9-1.5,8.3-1.5,8.1,0,12.3,3.4,16,6.4,3.7,3,6.9,5.6,13.5,5.6s9.9-2.6,13.5-5.6c3.7-3,7.9-6.4,16-6.4s12.3,3.4,16,6.4c2.1,1.7,4.1,3.3,6.8,4.4.7-4.1,1.1-8.3,1.2-12.6h0Z"/>
      <path id="TEXTES" class="cls-1" d="M241.8,84.9v-52.7c0-3.7-.2-4.8-.4-5.2-.1-.2-.7-.7-2.9-.8-2.1-.1-3.3-.2-3.7-.3-.3,0-.8-.3-.8-1.1s.3-1.1,1.6-1.1.8,0,1.7,0c1.7.1,5.5.2,11.8.2s5.8,0,7.1-.2c.4,0,1.1-.2,1.8-.2,1.7,0,2.1.7,2.1,1.3s-1.1,1.2-3.5,1.2-3.4.4-3.7.7c-.3.3-.6,1.4-.6,4.6v22.8h29.6v-21.3c0-4.3-.4-5.7-.7-6.1-.3-.4-1.5-.8-5.4-.8-1.5,0-1.8-.6-1.8-1.2s.3-1.2,2-1.2h21.8c1.6,0,2.4.4,2.4,1.2s-1.4,1.2-4.7,1.3c-.8,0-1.5,0-1.8.2-.6.2-.9.5-1.1.9-.1.3-.2,1.4-.2,4.6v53.2c0,3.9.2,5.1.5,5.5.4.4,1.7,1,5.5,1,.7,0,1.2,0,1.5.3.2.2.3.5.3.8,0,.8-.7,1.2-2.1,1.2h-21.7c-.6,0-2.2,0-2.2-1.1s.6-1.1,4.9-1.4c2-.2,2.5-.5,2.6-.7.1-.2.4-1.1.4-4.5v-28.8h-29.6v28c0,3.6.3,4.8.6,5.1.3.3,1.3.8,4.5,1,2,.1,2.9.5,2.9,1.2s-.8,1.2-2.3,1.2h-21.7c-.6,0-2.3,0-2.3-1.1s1.7-1.2,2.2-1.3c.9,0,1.8-.1,2.7-.2,1.7-.2,2.4-.6,2.6-.9,0-.1.2-.9.2-5.4h0ZM335.1,84.4c-6.3-7-9.5-15.7-9.5-25.9s3.1-19.1,9.1-25.7c6.1-6.7,13.9-10,23.4-10s16.5,3.5,22.5,10.5c6,6.9,9.1,15.7,9.1,26s-3,18.5-9,25.4c-6,6.9-13.4,10.4-22.1,10.4s-17.1-3.6-23.4-10.5h0ZM345.4,29.8c-5.3,5.9-8,15.8-8,29.2s1.9,19.1,5.6,24.9c3.7,5.8,9,8.8,15.6,8.8s10.9-2.8,14.1-8.3c3.5-6.1,5.3-14.5,5.3-24.7s-2.5-21.7-7.5-28.4c-3.1-4.2-7.4-6.3-12.9-6.3s-9.3,1.6-12.2,4.8h0ZM347.2,18.6c1,0,2.4-1.2,4.3-3.5,1.7-2.2,3.2-4.7,4.6-7.5,2.5,4.9,4.8,8.4,7.1,10.6h0c0,0,7.3,0,7.3,0l-.4-.4c-3.6-4.5-6.8-9.3-9.4-14.2-1.8-3.3-2.5-3.7-2.9-3.7s-1.3.4-2.7,3.7c-2.6,5.7-5.5,10-8.5,12.9-.5.5-.7.8-.7,1.1s.1,1,1.2,1h0ZM452.2,26.4c1.2,0,2.9,0,4.9.5,3.1.6,5.4,2,6.7,4.1,1,1.6,1.8,3.7,2.3,6l.4,3.6c.4,1.9,1,2.8,2,2.8s1.5-.6,1.5-1.6,0-.2-.1-.6c0-.3,0-.5,0-.7-.7-7.3-1.2-12.9-1.3-16.6v-.3l-16.9.3c-5,0-8.8,0-11.2,0l-20.4-.3h-4.8v.2c-.4,5.1-.7,9.1-.9,12.1l-.2,2.3c0,.7-.1,1.5-.1,2.2,0,2,.8,2.4,1.5,2.4s1.5-1.1,1.7-3.2c.7-6.5,3.1-10.6,7.2-12.1,1.5-.6,5.6-.9,11.9-1v59.7c0,2.7-.2,3.6-.5,4-.5.8-1.8,1.2-3.8,1.2-3.2,0-4.6.4-4.6,1.3s1.5,1.1,2.6,1.1c3,0,5.5,0,7.4-.1,1.9-.1,4-.1,6.2-.1s4.4,0,8.5.2c.4,0,.9.1,1.4.1,1.5,0,1.9-.6,1.9-1.1s-.2-1-1.5-1.1c-3.8,0-5.1-.4-5.5-.6-1.2-.6-1.8-2-1.8-4.3V26.6c.8,0,2.7-.1,5.5-.2h0ZM500,90.6c-.2.4-.9.8-2.9,1-3,.2-3.7.3-3.8.3-.7.1-.8.6-.8.9,0,1.1,1.6,1.1,2.2,1.1h12.5c19.2,0,32.3.2,38.8.6h.3s0-3.6,0-3.6c0-2.8,0-5.6.2-8.6.1-3.2.2-4.6.2-4.9,0-1.6-.4-2.4-1.3-2.4s-1.4.9-1.6,2.7c-.6,7.3-3,11.4-7.3,12.4-2.5.6-11,.9-25.5.9v-33h4.2c5,0,8.1.2,9.3.6,2.6.9,4.2,3.3,4.7,7.1.4,3.1.7,5,.8,5.6.2.9.8,1,1.2,1s1.4-.2,1.4-1.6,0-1,0-1.7c-.2-2.6-.3-7.6-.3-14.7s0-3,.2-5.3c.1-2.4.2-4.1.2-5.3,0-1.7-.7-2.1-1.4-2.1-1.1,0-1.3,1.8-1.4,2.3-.6,5.4-1.7,8.6-3.2,9.7-1.6,1.1-6.1,1.7-13.5,1.7h-2.1v-28.9h7.9c9,0,14.6.6,16.7,1.8,2.8,1.6,4.8,5.4,6.1,11.3.4,1.8,1,2.7,1.9,2.7s1.2-.4,1.2-1.3,0-1,0-1.3l-.4-4.3c-.5-5.1-.8-9.1-.9-11.9v-.3h-.3c-1.6.3-3.5.5-5.5.5h-42.4c-.6,0-2.5,0-2.5,1.1s.3,1.1,1.9,1.1c3.7,0,5,.3,5.3.5.3.2.7.9.7,3.2v56.4c0,3.1-.3,4.2-.5,4.6h0ZM577,90.6c-.3.3-1.3.6-4.4.8-2,.1-3,.5-3,1.2s.3,1.2,2,1.2l41.5.3c1.9,0,3.7,0,5.2.2,1.6.1,2.5.2,2.9.2h1.3v-.2c.2-4.1.3-6.9.3-8.6v-8.7c0-.6,0-1.1-.4-1.4-.2-.3-.6-.4-1-.4s-1.3.2-1.4,1.6c-.2,3.7-.9,6.6-2,8.8-1.1,2.1-3.2,3.6-6.3,4.4-3.2.8-8.7,1.2-16.4,1.2s-5.5,0-7.2,0v-58.7c0-3.6.3-4.8.5-5.1.2-.3,1-.8,3.2-.8,2,0,3.1-.2,3.5-.3.5-.1.8-.5.8-1s-.4-1.3-2.1-1.3h-1.1c-1.1,0-2.6,0-4.3.2s-2.9.2-3.5.2c-6.5,0-10.9,0-13.1-.3h-.9c-1.3,0-1.5.7-1.5,1.2s.4,1.4,2.2,1.4c3.9,0,4.9.3,5.2.5.2.2.7,1,.7,4.1v56.2c0,2.5-.4,3.3-.7,3.6h0ZM394.6,110c-1.1-1.8-2.7-3.1-4.5-3.7-1.5-.5-4.1-.8-7.7-.8h-5.2c-.7,0-.8.3-.8.5,0,.3.2.6,1,.6,1.1,0,1.3.1,1.4.1,0,0,.1.3.1,1.5v16.2c0,.8,0,1,0,1,0,.1-.4.3-1.3.3s-1.2,0-1.2.5.1.6.8.6h8.1c3.1,0,5.6-.8,7.4-2.2,2.5-2,3.8-4.9,3.8-8.4s-.6-4.4-1.7-6.3h0ZM390.4,123.6c-1.3,1.5-3,2.2-5,2.2s-2.6-.2-2.9-.3c-.1,0-.1-.1-.1-.1,0,0,0-.2,0-1v-16c0-1.1.1-1.3.1-1.3.1-.1.5-.3,2.2-.3,2.7,0,4.6.8,5.9,2.2s1.9,3.9,1.9,7.1-.7,5.9-2,7.4h0ZM406.1,125.7s-.1.2-.7.2c-.7,0-1.1,0-1.2,0-.2,0-.4.2-.4.4s.1.5.8.5h3.8c5.8,0,9.7,0,11.6.2h.3s0-1.2,0-1.2c0-.8,0-1.7,0-2.6,0-.9,0-1.4,0-1.5,0-.7-.3-.9-.6-.9-.4,0-.6.3-.6,1-.2,2.1-.9,3.3-2,3.6-.7.2-3.2.3-7.4.3v-9.5h1.1c1.8,0,2.5,0,2.7.2.7.2,1.1.9,1.3,2,.1.9.2,1.5.3,1.7.1.4.4.4.5.4.3,0,.6-.2.6-.7s0-.3,0-.5c0-.8,0-2.3,0-4.4s0-.9,0-1.6c0-.7,0-1.2,0-1.6,0-.7-.4-.8-.6-.8-.3,0-.5.3-.6.9-.2,1.9-.6,2.6-.9,2.8-.3.2-1.2.5-3.9.5h-.5v-8.3h2.2c3.3,0,4.5.3,4.9.5.8.4,1.4,1.5,1.7,3.3,0,.2.2,1,.7,1s.5-.2.5-.6,0-.3,0-.4v-1.3c-.3-1.5-.4-2.7-.4-3.6v-.3h-.3c-.5.1-1,.2-1.6.2h-12.7c-.6,0-.9.2-.9.5s0,.5.8.5c1.2,0,1.5.1,1.5.1,0,0,.1.1.1.8v16.9c0,1-.1,1.2-.1,1.3h0ZM455,121.2c0,0-.2-.2-.5-.2-.4,0-.6.2-.6.6,0,1.1-.2,1.9-.6,2.6-.3.6-.9,1-1.8,1.2-.9.2-2.6.4-4.9.4s-1.5,0-2,0v-17.4c0-1.2.1-1.4.1-1.4,0,0,.1-.1.8-.2.8,0,1,0,1.1,0,.2,0,.4-.2.4-.5s0-.6-.8-.6h-.3c-.3,0-.8,0-1.3,0-.5,0-.9,0-1,0-1.9,0-3.2,0-3.9,0h-.3c-.5,0-.6.3-.6.5s0,.6.8.6c1.2,0,1.4.1,1.4.1,0,0,.1.2.1,1.1v16.9c0,.8-.1.9-.1.9,0,0-.2.1-1.2.2-.4,0-1.1,0-1.1.5s0,.5.8.5h12.5c.6,0,1.1.1,1.5.1.5,0,.8,0,.9,0h.6v-.2c0-1.3.1-2.1.1-2.6v-2.6c0-.2,0-.4-.2-.6h0ZM479.9,125.9c-.9,0-1.3-.1-1.4-.2-.2,0-.3-.3-.5-.7-2.9-7.8-4.7-12.7-5.4-14.6-.9-2.5-1.5-4.1-1.8-4.9,0-.3-.3-.4-.4-.4-.2,0-.4.2-.5.5v.5c-.3.3-.4.6-.4.8-1.7,4.6-3.8,10.6-6.3,17.8-.1.4-.3.7-.5.8-.2.1-.5.2-1.2.2-.4,0-1.2,0-1.2.6s0,.5.7.5.3,0,.5,0c.6-.1,1.2-.1,1.8,0,1.2,0,2.3.1,3.2.1s1-.2,1-.6-.8-.6-1.1-.6c-1.2,0-1.4-.1-1.5-.1,0,0-.2,0-.2-.2,0-.3.3-1.5,1.7-5.2h6c.7,2,1.1,3.3,1.3,3.9l.4,1.2c0,0,0,.1,0,.1,0,0-.5.3-2.4.3-.7,0-1.1.2-1.1.6s.1.6.9.6.3,0,.5,0h3.8c0-.1,3.8,0,3.8,0,.2,0,.4,0,.6,0,.7,0,.7-.4.7-.5,0-.5-.8-.5-1-.6h0ZM466.8,119c1-3,1.9-5.5,2.7-7.6l1.2,3.5,1.5,4.1h-5.3ZM352.2,116.2c0-.8-.6-1.4-1.4-1.4h-119c-.8,0-1.4.6-1.4,1.4s.6,1.4,1.4,1.4h119c.8,0,1.4-.6,1.4-1.4ZM623.6,114.8h-119.1c-.8,0-1.4.6-1.4,1.4s.6,1.4,1.4,1.4h119.1c.8,0,1.4-.6,1.4-1.4s-.6-1.4-1.4-1.4ZM275.4,142.8c-3.6-2.7-9.2-4.1-16.9-4.1h-22c-1.3,0-3.1.1-3.1,1.2s.3,1.1,1.8,1.1h1.7c1.6,0,2.8.1,3.4.4,1,.4,1.5,1.6,1.5,3.6v59.1c0,1-.3,1.6-.8,1.8h0c-.2.4-1.2.9-5.2.9s-2.4.1-2.4,1,1.9,1.3,3.3,1.3h23c1.4,0,1.7-.7,1.7-1.3s-.2-1-1.4-1c-1.8,0-3.7-.1-5.6-.4-1-.2-1.7-.7-2-1.5,0-.3-.2-1-.2-2.8v-28.1c2.8.4,5.2.7,7.4.7,5.4,0,9.9-1.2,13.3-3.4,5.6-3.6,8.4-8.8,8.4-15.3s-2-9.9-6.1-12.9h0ZM264.9,168.9c-3,1.9-6.7,2.9-11,2.9s-1.1,0-1.5,0v-26.5c0-2,.3-2.7.5-2.9.8-.9,2.6-1.3,5.3-1.3,8.3,0,12.3,4.9,12.3,14.8s-1.9,10.8-5.6,13.2ZM362.3,190.5c-.2-.3-.6-.4-1-.4s-1.3.2-1.4,1.6c-.2,3.7-.9,6.6-2,8.8-1.1,2.1-3.2,3.6-6.3,4.4-3.2.8-8.7,1.2-16.4,1.2s-5.5,0-7.2,0v-58.7c0-3.6.3-4.8.5-5.1.2-.3,1-.8,3.2-.8,2,0,3.1-.1,3.5-.3.5-.1.7-.5.7-1s-.4-1.3-2.1-1.3h-1.1c-1.1,0-2.6,0-4.3.1-1.7.1-2.9.1-3.5.1-6.5,0-10.9-.1-13.1-.3h-.9c-1.3,0-1.5.7-1.5,1.2s.4,1.4,2.2,1.4c3.9,0,4.9.3,5.2.5.2.2.6,1,.6,4.1v56.2c0,2.5-.4,3.3-.7,3.5-.3.3-1.3.6-4.4.8-2,.1-3,.5-3,1.2s.3,1.2,2,1.2l41.5.3c1.9,0,3.7,0,5.2.2,1.6.1,2.5.2,2.9.2h1.4v-.2c.2-4,.3-6.9.3-8.6v-8.7c0-.6,0-1.1-.4-1.4h0ZM450.6,206.6c-2.5,0-4.2-.3-5-.7-.8-.4-1.4-1.3-1.9-2.7-9.9-27-15.6-42.4-17.9-48.7-3.1-8.2-5-13.7-5.9-16.3,0-.2-.3-.8-.8-.8-.7,0-1,1-1.1,1.3l-.4,1.8c-.5,1-.8,1.9-.9,2.7-5.4,15.1-12.5,35-20.9,59.3-.5,1.5-1.2,2.6-2.1,3.1-.9.5-2.4.9-4.4.9-2.3,0-3.4.5-3.4,1.3s.3,1.2,1.7,1.2.8,0,1.4-.2c1.9-.4,4.1-.4,6.1-.2,4.1.3,7.7.4,10.7.4s2.9,0,2.9-1.3-1.8-1.2-3.1-1.3c-4-.3-4.8-.4-5-.4-.7-.2-1-.6-1-1.4,0-1.5,2-7.6,5.9-18.1h21c2.3,6.9,3.7,11.5,4.3,13.5l.5,1.4.8,2.6c.2.6.2.7.2.7,0,.4-.8,1.4-8.5,1.5-2,0-3,.5-3,1.4s.8,1.3,2.3,1.3,1.1,0,1.5-.1l12.7-.4,12.7.4c.5,0,1.2.1,1.8.1,1.5,0,1.8-.6,1.8-1.1,0-1-1.6-1.2-2.9-1.2h0ZM406.1,183.6c3.8-11.2,7-20.6,9.8-27.7l4.6,13.2,5.3,14.6h-19.6ZM540.5,186.3h-11c-6,0-9.6,0-10.6,0h-1.8c-1.6,0-2.5.5-2.5,1.4s.2.8.6.9c.2,0,.6.2,1.9.2,4.5,0,6,.4,6.4.7.4.4.9,1.7.9,5.7s-.5,6.6-1.5,8.1c-1.9,3-5.6,4.5-10.8,4.5s-12.4-3-16.4-9c-4-6-6.1-14.2-6.1-24.4s2-19.1,6-25.2c4-6.1,9.4-9.2,16.2-9.2s9.9,1.9,13.2,5.5c3.3,3.6,5.2,8.8,5.5,15.2,0,1.4.7,1.6,1.3,1.6.8,0,1.4-.8,1.5-2.4v-.3h0c0-.1,0-.9,0-3.1v-6.5c0-1.7.2-4.4.5-8.2.1-1.2.2-1.9.2-2.1,0-.7-.4-1.1-1.1-1.1s-1.1.5-1.5,1.6c-.4,1.5-1.1,2.2-2.2,2.2s-2.2-.4-3.7-1.1c-5.1-2.4-10-3.6-14.3-3.6-10,0-18.1,3.4-24.2,10.2-6.1,6.8-9.2,15.7-9.2,26.7s3.2,19.5,9.4,25.8c6.2,6.3,14.7,9.5,25.3,9.5s8.3-.6,11.4-1.8,6.5-3.3,9.9-6.2h0v-3.4c0-4.9.1-7.8.4-8.6.4-1.1,2-1.5,5-1.4h2.3c1,0,1.2-.7,1.2-1.1,0-.8-.8-1.2-2.3-1.2h0ZM620.6,190c-.9,0-1.4.9-1.6,2.7-.6,7.3-3,11.4-7.3,12.4-2.5.6-11,.9-25.5.9v-33h4.2c5,0,8.1.2,9.3.6,2.6.9,4.2,3.3,4.7,7.1.4,3.1.7,5,.8,5.6.2.9.8,1,1.2,1s1.4-.2,1.4-1.6,0-1,0-1.7c-.2-2.6-.3-7.6-.3-14.7s0-3,.2-5.3c.1-2.4.2-4.1.2-5.3,0-1.7-.7-2.1-1.4-2.1-1.1,0-1.3,1.8-1.4,2.3-.6,5.4-1.7,8.6-3.2,9.7-1.6,1.1-6.1,1.6-13.5,1.6h-2.1v-28.9h7.9c9,0,14.6.6,16.7,1.8,2.8,1.6,4.8,5.4,6.1,11.3.4,1.8,1,2.7,1.9,2.7s1.2-.4,1.2-1.3,0-1,0-1.3l-.4-4.3c-.5-5.1-.8-9.1-.9-11.9v-.3h-.3c-1.6.3-3.5.4-5.5.4h-42.4c-.6,0-2.5,0-2.5,1.1s.3,1.1,1.9,1.1c3.7,0,5,.3,5.3.5.3.2.7.9.7,3.2v56.4c0,3.1-.3,4.2-.5,4.6-.2.4-.9.8-2.9,1-3,.2-3.7.3-3.8.3-.7.1-.8.6-.8.9,0,1.1,1.6,1.1,2.2,1.1h12.5c19.2,0,32.3.2,38.8.6h.3s0-3.6,0-3.6c0-2.8,0-5.6.2-8.6.1-3.2.2-4.6.2-4.9,0-1.6-.4-2.4-1.3-2.4h0Z"/>
    </g>
  </g>
</svg>